<?xml version="1.0" encoding="UTF-8" standalone="no"?>
<!-- Created with Inkscape (http://www.inkscape.org/) -->

<svg
   xmlns:dc="http://purl.org/dc/elements/1.1/"
   xmlns:cc="http://creativecommons.org/ns#"
   xmlns:rdf="http://www.w3.org/1999/02/22-rdf-syntax-ns#"
   xmlns:svg="http://www.w3.org/2000/svg"
   xmlns="http://www.w3.org/2000/svg"
   xmlns:sodipodi="http://sodipodi.sourceforge.net/DTD/sodipodi-0.dtd"
   xmlns:inkscape="http://www.inkscape.org/namespaces/inkscape"
   width="240mm"
   height="120mm"
   viewBox="0 0 240 120"
   version="1.1"
   id="svg8"
   inkscape:version="0.92.3 (2405546, 2018-03-11)"
   sodipodi:docname="digrafod.svg">
  <defs
     id="defs2" />
  <sodipodi:namedview
     id="base"
     pagecolor="#ffffff"
     bordercolor="#666666"
     borderopacity="1.0"
     inkscape:pageopacity="0.0"
     inkscape:pageshadow="2"
     inkscape:zoom="1.9887478"
     inkscape:cx="497.41375"
     inkscape:cy="254.856"
     inkscape:document-units="mm"
     inkscape:current-layer="layer1"
     showgrid="false"
     showborder="true"
     width="200mm"
     showguides="true"
     inkscape:guide-bbox="true"
     inkscape:window-width="1920"
     inkscape:window-height="1031"
     inkscape:window-x="0"
     inkscape:window-y="0"
     inkscape:window-maximized="1">
    <inkscape:grid
       type="xygrid"
       id="grid815"
       units="mm"
       spacingx="10"
       spacingy="10"
       empspacing="4"
       dotted="false" />
  </sodipodi:namedview>
  <metadata
     id="metadata5">
    <rdf:RDF>
      <cc:Work
         rdf:about="">
        <dc:format>image/svg+xml</dc:format>
        <dc:type
           rdf:resource="http://purl.org/dc/dcmitype/StillImage" />
        <dc:title></dc:title>
      </cc:Work>
    </rdf:RDF>
  </metadata>
  <g
     inkscape:label="Layer 1"
     inkscape:groupmode="layer"
     id="layer1"
     transform="translate(0,-177)">
    <ellipse
       style="fill:#030303;fill-opacity:1;stroke:#1853ce;stroke-width:0.26499999;stroke-miterlimit:4;stroke-dasharray:none;stroke-opacity:1"
       id="path818"
       cx="121.19959"
       cy="206.2666"
       rx="3.8581645"
       ry="4.2572851" />
    <ellipse
       style="fill:#030303;fill-opacity:1;stroke:#1853ce;stroke-width:0.26499999;stroke-miterlimit:4;stroke-dasharray:none;stroke-opacity:1"
       id="path820"
       cx="91.265549"
       cy="263.6069"
       rx="4.523366"
       ry="4.6564059" />
    <ellipse
       style="fill:#030303;fill-opacity:1;stroke:#1853ce;stroke-width:0.26499999;stroke-miterlimit:4;stroke-dasharray:none;stroke-opacity:1"
       id="path822"
       cx="148.60587"
       cy="264.80429"
       rx="4.3903255"
       ry="4.523366" />
    <path
       style="fill:none;stroke:#000000;stroke-width:0.26458332px;stroke-linecap:butt;stroke-linejoin:miter;stroke-opacity:1"
       d="m 90.999473,262.94172 29.800997,-56.67511 27.93844,58.53767 z"
       id="path824"
       inkscape:connector-curvature="0" />
    <ellipse
       style="fill:#030303;fill-opacity:1;stroke:#1853ce;stroke-width:0.26499999;stroke-miterlimit:4;stroke-dasharray:none;stroke-opacity:1"
       id="path826"
       cx="120.80048"
       cy="242.7196"
       rx="4.2572851"
       ry="5.0555267" />
    <path
       style="fill:none;stroke:#000000;stroke-width:0.26458332px;stroke-linecap:butt;stroke-linejoin:miter;stroke-opacity:1"
       d="m 148.73891,264.80428 -28.4706,-22.08467"
       id="path828"
       inkscape:connector-curvature="0" />
    <path
       style="fill:none;stroke:#000000;stroke-width:0.26458332px;stroke-linecap:butt;stroke-linejoin:miter;stroke-opacity:1"
       d="M 90.999473,262.94172 120.26831,242.71961"
       id="path830"
       inkscape:connector-curvature="0" />
    <path
       style="fill:none;stroke:#000000;stroke-width:0.26458332px;stroke-linecap:butt;stroke-linejoin:miter;stroke-opacity:1"
       d="m 120.80047,206.26661 -0.53216,36.453"
       id="path832"
       inkscape:connector-curvature="0" />
    <path
       style="fill:none;stroke:#000000;stroke-width:0.26458332px;stroke-linecap:butt;stroke-linejoin:miter;stroke-opacity:1"
       d="m 101.11052,236.59976 5.05553,2.39473 4.25729,-13.5701 z"
       id="path834"
       inkscape:connector-curvature="0" />
    <path
       style="fill:#030303;fill-opacity:1;stroke:#1853ce;stroke-width:1.00724161;stroke-miterlimit:4;stroke-dasharray:none;stroke-opacity:1"
       d="m 387.99021,226.96766 -4.1688,-2.09608 14.13955,-16.95106 c 7.77675,-9.32308 14.30668,-16.78392 14.51096,-16.57965 0.46864,0.46865 -19.12812,37.83054 -19.81008,37.76857 -0.27656,-0.0251 -2.37879,-0.98893 -4.67163,-2.14178 z"
       id="path838"
       inkscape:connector-curvature="0"
       transform="matrix(0.26458333,0,0,0.26458333,0,177)" />
    <path
       style="fill:#030303;fill-opacity:1;stroke:#1853ce;stroke-width:1.00724161;stroke-miterlimit:4;stroke-dasharray:none;stroke-opacity:1"
       d="m 396.56136,230.97749 c -1.41681,-1.14411 -0.86014,-2.67062 5.04058,-13.82251 3.64831,-6.895 6.74555,-11.87301 6.88276,-11.06224 0.1372,0.81077 -1.48012,6.90468 -3.59405,13.54203 -3.88001,12.18244 -5.14915,13.91075 -8.32929,11.34272 z"
       id="path840"
       inkscape:connector-curvature="0"
       transform="matrix(0.26458333,0,0,0.26458333,0,177)" />
    <path
       style="fill:#030303;fill-opacity:1;stroke:#1853ce;stroke-width:1.00724161;stroke-miterlimit:4;stroke-dasharray:none;stroke-opacity:1"
       d=""
       id="path842"
       inkscape:connector-curvature="0"
       transform="matrix(0.26458333,0,0,0.26458333,0,177)" />
    <path
       style="fill:#030303;fill-opacity:1;stroke:#1853ce;stroke-width:0.08902843;stroke-miterlimit:4;stroke-dasharray:none;stroke-opacity:1"
       d="m 408.47248,209.33108 c -0.004,-0.0496 0.11233,-0.62961 0.25819,-1.28888 0.30019,-1.35683 0.34273,-2.1336 0.12858,-2.34775 -0.3731,-0.3731 -0.84491,-0.22275 -1.37443,0.43796 -0.34489,0.43033 -1.38371,1.97055 -1.72633,2.55955 -0.13637,0.23443 -0.26592,0.40826 -0.28789,0.38629 -0.022,-0.022 1.70263,-3.35377 3.83246,-7.40398 2.12983,-4.05022 3.87266,-7.32055 3.87296,-7.26741 4.7e-4,0.0854 -4.41421,14.23125 -4.61642,14.7922 -0.044,0.12222 -0.0833,0.18163 -0.0871,0.13202 z"
       id="path846"
       inkscape:connector-curvature="0"
       transform="matrix(0.26458333,0,0,0.26458333,0,177)" />
    <path
       style="fill:#030303;fill-opacity:1;stroke:#1853ce;stroke-width:0.08902843;stroke-miterlimit:4;stroke-dasharray:none;stroke-opacity:1"
       d="m 397.80368,231.17673 c -0.2615,-0.13445 -0.66956,-0.42649 -0.90681,-0.64898 -0.40761,-0.38226 -0.43134,-0.4297 -0.43134,-0.86207 0,-1.32065 1.60473,-4.77774 6.15821,-13.26666 2.14275,-3.99467 4.94422,-8.78136 5.01505,-8.56888 0.0795,0.23845 -1.49276,5.95251 -2.77354,10.07998 -2.77112,8.93028 -4.36908,12.70796 -5.66199,13.3853 -0.37225,0.19502 -0.87179,0.15265 -1.39958,-0.11869 z"
       id="path848"
       inkscape:connector-curvature="0"
       transform="matrix(0.26458333,0,0,0.26458333,0,177)" />
    <path
       style="fill:#030303;fill-opacity:1;stroke:#1853ce;stroke-width:0.08902843;stroke-miterlimit:4;stroke-dasharray:none;stroke-opacity:1"
       d="m 407.18888,209.68794 c 0.0281,-0.0733 0.0669,-0.13333 0.0861,-0.13333 0.0192,0 0.0349,0.06 0.0349,0.13333 0,0.0733 -0.0387,0.13334 -0.0861,0.13334 -0.0474,0 -0.0631,-0.06 -0.0349,-0.13334 z"
       id="path850"
       inkscape:connector-curvature="0"
       transform="matrix(0.26458333,0,0,0.26458333,0,177)" />
    <path
       style="fill:#030303;fill-opacity:1;stroke:#1853ce;stroke-width:0.08902843;stroke-miterlimit:4;stroke-dasharray:none;stroke-opacity:1"
       d="m 397.92025,232.32429 c -0.54331,-0.18778 -1.48122,-0.78286 -1.87481,-1.18951 -0.77932,-0.80521 -0.74319,-2.06104 0.11922,-4.1444 1.30978,-3.16411 6.46838,-12.99647 9.04647,-17.24271 0.27688,-0.45604 0.51238,-0.8727 0.52333,-0.92592 0.0109,-0.0532 0.0914,-0.17156 0.1787,-0.26297 0.0873,-0.0914 0.13757,-0.20055 0.11163,-0.24254 -0.026,-0.042 0.0151,-0.10024 0.0913,-0.12946 0.0762,-0.0292 0.11615,-0.0892 0.0889,-0.13333 -0.0273,-0.0441 0.0127,-0.10411 0.0889,-0.13333 0.0761,-0.0292 0.11615,-0.0892 0.0889,-0.13334 -0.0273,-0.0441 0.0127,-0.10411 0.0889,-0.13333 0.0762,-0.0292 0.11356,-0.0934 0.0831,-0.14265 -0.0304,-0.0492 -0.013,-0.0895 0.0388,-0.0895 0.0518,0 0.0941,-0.06 0.0941,-0.13333 0,-0.0733 0.04,-0.13334 0.0889,-0.13334 0.0489,0 0.0889,-0.0557 0.0889,-0.12382 0,-0.0681 0.0625,-0.14782 0.13897,-0.17715 0.0764,-0.0293 0.11531,-0.0916 0.0864,-0.13838 -0.0289,-0.0468 0.032,-0.13031 0.13531,-0.18561 0.10333,-0.0553 0.17045,-0.11797 0.14916,-0.13927 -0.0795,-0.0795 0.84016,-0.92465 1.00619,-0.92465 0.0951,0 0.17285,0.0332 0.17285,0.0739 0,0.0406 0.10161,0.12824 0.22579,0.1947 0.21508,0.11511 0.22354,0.14846 0.17854,0.70391 -0.0578,0.7129 -0.0869,0.89304 -0.17783,1.09801 -0.0389,0.0877 -0.0461,0.18399 -0.016,0.21405 0.0301,0.03 0.0105,0.10782 -0.0434,0.17281 -0.0539,0.065 -0.0748,0.17866 -0.0465,0.25262 0.0284,0.0739 0.009,0.13446 -0.0441,0.13446 -0.0586,0 -0.0734,0.0892 -0.0381,0.22967 0.0374,0.14893 0.0251,0.20958 -0.0348,0.17253 -0.0529,-0.0327 -0.0925,0.0234 -0.0925,0.13113 0,0.12111 0.0371,0.16535 0.10399,0.124 0.0709,-0.0438 0.085,-0.0149 0.0444,0.0909 -0.0328,0.0853 -0.0602,0.18192 -0.0609,0.21458 -7.1e-4,0.0327 -0.0332,0.009 -0.0721,-0.0521 -0.0434,-0.0683 -0.15132,0.20713 -0.27874,0.7111 -1.14842,4.5422 -3.7565,12.90286 -5.20731,16.69295 -1.42762,3.7295 -2.48707,5.36558 -3.70962,5.72864 -0.57439,0.17057 -0.80063,0.16571 -1.36494,-0.0293 z m 1.29367,-0.94387 c 0.3677,-0.19015 0.98156,-0.91262 1.36562,-1.60724 0.49281,-0.89133 1.05379,-2.17133 0.994,-2.26806 -0.0285,-0.0462 -0.0138,-0.0839 0.0328,-0.0839 0.11059,0 0.5673,-1.14134 0.50017,-1.24996 -0.0283,-0.0459 -0.006,-0.0834 0.05,-0.0834 0.0558,0 0.085,-0.0496 0.0648,-0.11031 -0.0202,-0.0607 0.0187,-0.16584 0.0866,-0.23369 0.0679,-0.0679 0.10232,-0.17821 0.0766,-0.24523 -0.0257,-0.067 -0.004,-0.12188 0.0488,-0.12188 0.0526,0 0.0726,-0.06 0.0444,-0.13333 -0.0281,-0.0733 -0.009,-0.13333 0.0423,-0.13333 0.0514,0 0.0769,-0.0496 0.0567,-0.11032 -0.0202,-0.0607 0.0187,-0.16583 0.0866,-0.23368 0.0679,-0.0678 0.10232,-0.17821 0.0766,-0.24524 -0.0257,-0.067 -0.004,-0.12187 0.0488,-0.12187 0.0526,0 0.0726,-0.06 0.0444,-0.13333 -0.0281,-0.0733 -0.008,-0.13333 0.0444,-0.13333 0.0526,0 0.0726,-0.06 0.0444,-0.13334 -0.0281,-0.0733 -0.008,-0.13333 0.0444,-0.13333 0.0526,0 0.0726,-0.06 0.0444,-0.13333 -0.0281,-0.0733 -0.008,-0.13333 0.0444,-0.13333 0.0526,0 0.0726,-0.06 0.0444,-0.13334 -0.0281,-0.0733 -0.008,-0.13333 0.0444,-0.13333 0.0526,0 0.0726,-0.06 0.0444,-0.13333 -0.0281,-0.0733 -0.008,-0.13334 0.0444,-0.13334 0.0526,0 0.0726,-0.06 0.0444,-0.13333 -0.0281,-0.0733 -0.008,-0.13333 0.0445,-0.13333 0.0526,0 0.0726,-0.06 0.0444,-0.13333 -0.0281,-0.0733 -0.008,-0.13334 0.0444,-0.13334 0.0526,0 0.0726,-0.06 0.0445,-0.13333 -0.0281,-0.0733 -0.008,-0.13333 0.0444,-0.13333 0.0526,0 0.0726,-0.06 0.0445,-0.13333 -0.0281,-0.0733 -0.008,-0.13334 0.0444,-0.13334 0.0526,0 0.0726,-0.06 0.0444,-0.13333 -0.0281,-0.0733 -0.008,-0.13333 0.0445,-0.13333 0.0526,0 0.0726,-0.06 0.0444,-0.13333 -0.0281,-0.0733 -0.008,-0.13334 0.0444,-0.13334 0.0526,0 0.0726,-0.06 0.0444,-0.13333 -0.0281,-0.0733 -0.008,-0.13333 0.0444,-0.13333 0.0526,0 0.0726,-0.06 0.0444,-0.13334 -0.0281,-0.0733 -0.008,-0.13333 0.0444,-0.13333 0.0526,0 0.0726,-0.06 0.0444,-0.13333 -0.0281,-0.0733 -0.008,-0.13333 0.0444,-0.13333 0.0526,0 0.0726,-0.06 0.0444,-0.13334 -0.0281,-0.0733 -0.008,-0.13333 0.0444,-0.13333 0.0526,0 0.0726,-0.06 0.0444,-0.13333 -0.0281,-0.0733 -0.0188,-0.13333 0.0209,-0.13333 0.0984,0 0.29935,-0.69345 0.23237,-0.80183 -0.0296,-0.0479 -0.007,-0.0871 0.0498,-0.0871 0.057,0 0.0806,-0.06 0.0525,-0.13333 -0.0281,-0.0733 -0.008,-0.13333 0.0444,-0.13333 0.0526,0 0.0726,-0.06 0.0445,-0.13334 -0.0281,-0.0733 -0.008,-0.13333 0.0444,-0.13333 0.0526,0 0.0726,-0.06 0.0445,-0.13333 -0.0281,-0.0733 -0.008,-0.13333 0.0444,-0.13333 0.0526,0 0.0736,-0.0574 0.0466,-0.12759 -0.0269,-0.0702 -0.0104,-0.14046 0.0368,-0.15619 0.0472,-0.0157 0.0949,-0.15823 0.10611,-0.31667 0.0112,-0.15845 0.0546,-0.28817 0.0965,-0.28826 0.0419,-9e-5 0.0532,-0.0602 0.025,-0.13351 -0.0281,-0.0733 -0.008,-0.13333 0.0444,-0.13333 0.0526,0 0.0726,-0.06 0.0444,-0.13334 -0.0281,-0.0733 -0.008,-0.13333 0.0453,-0.13333 0.0531,0 0.0756,-0.08 0.05,-0.17778 -0.0256,-0.0978 -0.006,-0.17777 0.0436,-0.17777 0.0496,0 0.0671,-0.06 0.0389,-0.13334 -0.0281,-0.0733 -0.008,-0.13333 0.0444,-0.13333 0.0526,0 0.0726,-0.06 0.0444,-0.13333 -0.0281,-0.0733 -0.008,-0.13333 0.0453,-0.13333 0.0531,0 0.0755,-0.08 0.05,-0.17778 -0.0256,-0.0978 -0.006,-0.17778 0.0436,-0.17778 0.0495,0 0.067,-0.06 0.0389,-0.13333 -0.0281,-0.0733 -0.008,-0.13333 0.0444,-0.13333 0.0526,0 0.0726,-0.06 0.0444,-0.13334 -0.0281,-0.0733 -0.008,-0.13333 0.0453,-0.13333 0.0531,0 0.0756,-0.08 0.05,-0.17778 -0.0256,-0.0978 -0.006,-0.17777 0.0436,-0.17777 0.0496,0 0.068,-0.0574 0.0411,-0.12759 -0.0269,-0.0702 -0.0101,-0.14056 0.0375,-0.15641 0.0476,-0.0159 0.0953,-0.14843 0.10611,-0.29463 0.0108,-0.1462 0.0512,-0.28913 0.0898,-0.31764 0.0386,-0.0285 0.0786,-0.1685 0.0889,-0.31111 0.0103,-0.1426 0.0503,-0.2826 0.0889,-0.31111 0.0386,-0.0285 0.0786,-0.1685 0.0889,-0.31111 0.0103,-0.1426 0.0543,-0.28506 0.0977,-0.31656 0.0434,-0.0315 0.0834,-0.18141 0.0889,-0.33313 0.005,-0.15172 0.0446,-0.27594 0.087,-0.27605 0.0424,-1.2e-4 0.0561,-0.0802 0.0305,-0.17798 -0.0256,-0.0978 -0.006,-0.17778 0.0436,-0.17778 0.0495,0 0.067,-0.06 0.0389,-0.13333 -0.0281,-0.0733 -0.008,-0.13333 0.0453,-0.13333 0.0531,0 0.0756,-0.08 0.05,-0.17778 -0.0256,-0.0978 -0.015,-0.17778 0.0235,-0.17778 0.0932,0 0.28815,-0.78582 0.22164,-0.89344 -0.0287,-0.0464 -0.007,-0.0843 0.0491,-0.0843 0.0652,0 0.0812,-0.0909 0.045,-0.25567 -0.039,-0.1776 -0.0114,-0.30044 0.0905,-0.40228 0.0806,-0.0806 0.12398,-0.20559 0.0963,-0.27766 -0.0277,-0.0721 -0.007,-0.13105 0.0462,-0.13105 0.0531,0 0.0755,-0.08 0.05,-0.17778 -0.0256,-0.0978 -0.006,-0.17777 0.0444,-0.17777 0.05,0 0.07,-0.08 0.0445,-0.17778 -0.0256,-0.0978 -0.007,-0.17778 0.0402,-0.17778 0.0477,0 0.074,-0.09 0.0584,-0.2 -0.0258,-0.18159 -0.2586,-0.30074 -0.24471,-0.12524 0.003,0.0411 -0.0667,0.12985 -0.15555,0.19718 -0.0888,0.0673 -0.12383,0.12368 -0.0778,0.12523 0.046,0.002 0.006,0.0616 -0.0889,0.13334 -0.0949,0.0718 -0.1349,0.13177 -0.0889,0.13333 0.046,0.002 0.0182,0.0528 -0.0618,0.11394 -0.08,0.0611 -0.15763,0.17096 -0.17254,0.24412 -0.0149,0.0732 -0.0749,0.17315 -0.13333,0.22222 -0.0584,0.0491 -0.11843,0.14907 -0.13334,0.22222 -0.0149,0.0732 -0.0749,0.17316 -0.13333,0.22222 -0.0584,0.0491 -0.11842,0.14588 -0.13333,0.21514 -0.0149,0.0693 -0.0986,0.20071 -0.18591,0.29213 -0.0873,0.0914 -0.13497,0.20474 -0.10586,0.25185 0.0291,0.0471 0.0144,0.0856 -0.0328,0.0856 -0.10087,0 -0.57665,0.78565 -0.57665,0.95222 0,0.0629 -0.0323,0.11445 -0.0718,0.11445 -0.10106,0 -0.34783,0.49889 -0.28022,0.5665 0.0306,0.0306 0.0125,0.0557 -0.0403,0.0557 -0.10625,0 -0.7632,1.12556 -0.7632,1.3076 0,0.063 -0.0325,0.11462 -0.0723,0.11462 -0.10119,0 -0.43606,0.67685 -0.36836,0.74455 0.0305,0.0305 0.01,0.0555 -0.0464,0.0555 -0.12191,0 -0.47744,0.66509 -0.398,0.74454 0.0305,0.0305 0.006,0.0555 -0.0535,0.0555 -0.0599,0 -0.0842,0.04 -0.054,0.0889 0.0302,0.0489 0.0132,0.0889 -0.0377,0.0889 -0.11512,0 -0.55272,0.84661 -0.47682,0.9225 0.0304,0.0304 0.006,0.0553 -0.0537,0.0553 -0.0599,0 -0.0842,0.04 -0.054,0.0889 0.0302,0.0489 0.0131,0.0889 -0.0379,0.0889 -0.11507,0 -0.64138,1.02439 -0.56536,1.10041 0.0303,0.0303 0.006,0.0551 -0.0538,0.0551 -0.0599,0 -0.0842,0.04 -0.054,0.0889 0.0302,0.0489 0.0102,0.0889 -0.0444,0.0889 -0.0547,0 -0.0747,0.04 -0.0444,0.0889 0.0302,0.0489 0.0134,0.0889 -0.0374,0.0889 -0.11521,0 -0.46414,0.66884 -0.38843,0.74455 0.0305,0.0305 0.006,0.0555 -0.0535,0.0555 -0.0599,0 -0.0842,0.04 -0.054,0.0889 0.0302,0.0489 0.0102,0.0889 -0.0445,0.0889 -0.0547,0 -0.0747,0.04 -0.0444,0.0889 0.0302,0.0489 0.0102,0.0889 -0.0444,0.0889 -0.0546,0 -0.0746,0.04 -0.0444,0.0889 0.0302,0.0489 0.0102,0.0889 -0.0444,0.0889 -0.0547,0 -0.0747,0.04 -0.0444,0.0889 0.0302,0.0489 0.021,0.0889 -0.0205,0.0889 -0.10728,0 -0.74483,1.20503 -0.67467,1.27519 0.032,0.032 0.009,0.0581 -0.0508,0.0581 -0.0599,0 -0.0842,0.04 -0.054,0.0889 0.0302,0.0489 0.0102,0.0889 -0.0444,0.0889 -0.0547,0 -0.0747,0.04 -0.0444,0.0889 0.0302,0.0489 0.0102,0.0889 -0.0445,0.0889 -0.0547,0 -0.0747,0.04 -0.0444,0.0889 0.0302,0.0489 0.0102,0.0889 -0.0445,0.0889 -0.0546,0 -0.0746,0.04 -0.0444,0.0889 0.0302,0.0489 0.0145,0.0889 -0.0349,0.0889 -0.12174,0 -1.98614,3.7162 -1.91894,3.82493 0.0293,0.0474 0.004,0.0862 -0.0557,0.0862 -0.0599,0 -0.0842,0.0248 -0.0539,0.055 0.0303,0.0303 0.001,0.10863 -0.0641,0.17416 -0.17284,0.17284 -1.00554,2.18106 -1.2094,2.91671 -0.18632,0.67237 -0.22876,1.29852 -0.088,1.29852 0.0473,0 0.0651,0.0546 0.0395,0.12143 -0.0448,0.1168 0.74788,0.90138 0.82887,0.82039 0.021,-0.021 0.11624,0.04 0.21173,0.13549 0.0955,0.0955 0.21215,0.1498 0.25925,0.12068 0.0471,-0.0291 0.0856,-0.0167 0.0856,0.0276 0,0.261 0.91492,0.36853 1.32618,0.15586 z m 8.57466,-23.73691 0.0592,-0.26667 -0.1739,0.22079 c -0.12282,0.15594 -0.14383,0.23936 -0.0715,0.28405 0.12365,0.0764 0.1134,0.0895 0.18619,-0.23817 z"
       id="path852"
       inkscape:connector-curvature="0"
       transform="matrix(0.26458333,0,0,0.26458333,0,177)" />
    <path
       style="fill:#030303;fill-opacity:1;stroke:#1853ce;stroke-width:0.08902843;stroke-miterlimit:4;stroke-dasharray:none;stroke-opacity:1"
       d=""
       id="path854"
       inkscape:connector-curvature="0"
       transform="matrix(0.26458333,0,0,0.26458333,0,177)" />
    <path
       style="fill:#030303;fill-opacity:1;stroke:#1853ce;stroke-width:0.08902843;stroke-miterlimit:4;stroke-dasharray:none;stroke-opacity:1"
       d=""
       id="path856"
       inkscape:connector-curvature="0"
       transform="matrix(0.26458333,0,0,0.26458333,0,177)" />
    <path
       style="fill:#030303;fill-opacity:1;stroke:#1853ce;stroke-width:0.08902843;stroke-miterlimit:4;stroke-dasharray:none;stroke-opacity:1"
       d=""
       id="path858"
       inkscape:connector-curvature="0"
       transform="matrix(0.26458333,0,0,0.26458333,0,177)" />
    <path
       style="fill:#030303;fill-opacity:1;stroke:#1853ce;stroke-width:0.08902843;stroke-miterlimit:4;stroke-dasharray:none;stroke-opacity:1"
       d="m 398.15441,232.3206 c -0.42392,-0.13921 -1.1933,-0.56661 -1.67597,-0.93104 -1.09104,-0.82374 -1.17734,-1.95865 -0.31658,-4.16346 0.68729,-1.76046 3.73595,-7.78899 6.36481,-12.586 0.67752,-1.23629 1.29439,-2.41628 1.37084,-2.62221 0.31717,-0.85433 0.42486,-1.06232 0.47541,-0.91821 0.0328,0.0935 0.27263,-0.24378 0.70445,-0.99056 0.3601,-0.62276 0.72974,-1.24066 0.82142,-1.37313 0.0917,-0.13246 0.16669,-0.264 0.16669,-0.29229 0,-0.0916 1.08432,-1.67646 1.44421,-2.1109 0.1922,-0.23201 0.46587,-0.50473 0.60817,-0.60605 l 0.25872,-0.18422 0.27684,0.19712 c 0.27449,0.19546 0.27635,0.20211 0.219,0.78411 -0.0318,0.32285 -0.1335,0.88112 -0.22597,1.24062 -0.0925,0.3595 -0.14675,0.70937 -0.1206,0.77749 0.0261,0.0681 0.003,0.12386 -0.0509,0.12386 -0.0541,0 -0.0984,0.08 -0.0984,0.17777 0,0.0978 0.0428,0.17778 0.0952,0.17778 0.0524,0 0.0334,0.0618 -0.0421,0.13733 -0.0755,0.0755 -0.18167,0.30554 -0.23585,0.51111 -1.13831,4.31869 -2.93362,10.23279 -4.37686,14.41815 -1.76459,5.11732 -2.96326,7.39286 -4.23641,8.04238 -0.41477,0.2116 -1.08789,0.30144 -1.42619,0.19035 z m 0.9062,-0.81386 c 0.51151,-0.14207 1.22367,-0.99819 1.84128,-2.21351 0.28722,-0.56518 0.58912,-1.22662 0.67089,-1.46986 0.0818,-0.24325 0.18045,-0.48325 0.21931,-0.53333 0.0389,-0.0501 0.14114,-0.29107 0.2273,-0.53551 0.0862,-0.24445 0.21606,-0.57952 0.28867,-0.74461 0.0726,-0.16509 0.1416,-0.34508 0.1533,-0.4 0.0117,-0.0549 0.0671,-0.2116 0.1231,-0.3482 0.056,-0.1366 0.12767,-0.3566 0.15925,-0.48888 0.0316,-0.13229 0.0869,-0.28053 0.12287,-0.32941 0.0957,-0.12998 1.59891,-4.70389 1.59891,-4.86516 0,-0.0752 0.057,-0.24655 0.12662,-0.38079 0.0697,-0.13424 0.19434,-0.50881 0.2771,-0.83238 0.0828,-0.32357 0.20108,-0.70831 0.26293,-0.85497 0.0619,-0.14667 0.27969,-0.84667 0.48407,-1.55555 0.20438,-0.70889 0.42957,-1.48888 0.50042,-1.73333 0.0709,-0.24444 0.17249,-0.60444 0.22587,-0.79999 0.0534,-0.19556 0.13288,-0.44744 0.17668,-0.55974 0.0438,-0.1123 0.0796,-0.2943 0.0796,-0.40444 0,-0.11014 0.0349,-0.23826 0.0776,-0.2847 0.0427,-0.0464 0.16002,-0.42445 0.26073,-0.84 0.10072,-0.41555 0.21215,-0.87555 0.24763,-1.02222 0.0355,-0.14666 0.056,-0.33473 0.0455,-0.41793 -0.0104,-0.0832 0.0478,-0.25319 0.12942,-0.37777 0.0816,-0.12458 0.11892,-0.22651 0.0829,-0.22651 -0.0361,0 -0.0264,-0.05 0.0214,-0.11111 0.11663,-0.14905 0.30719,-0.94532 0.24883,-1.03975 -0.0255,-0.0413 0.0131,-0.18924 0.0859,-0.32877 0.0728,-0.13954 0.13256,-0.30703 0.13286,-0.37222 8.9e-4,-0.19191 -0.21083,-0.0659 -0.35501,0.21136 -0.0733,0.14101 -0.18347,0.3108 -0.24476,0.37732 -0.1449,0.15728 -0.5969,0.82498 -0.67458,0.9965 -0.0332,0.0733 -0.13936,0.25333 -0.23587,0.4 -0.0965,0.14666 -0.21779,0.34666 -0.2695,0.44444 -0.12786,0.24175 -0.56721,0.97669 -0.95649,1.59999 -0.0611,0.0978 -0.16035,0.27778 -0.22065,0.4 -0.0938,0.19021 -0.71122,1.27471 -0.96144,1.68888 -0.0443,0.0733 -0.17574,0.31333 -0.29208,0.53333 -0.11634,0.22 -0.34234,0.64 -0.50222,0.93333 -1.51626,2.78183 -2.4053,4.48887 -2.33784,4.48887 0.031,0 -0.0108,0.0742 -0.0928,0.16479 -0.23913,0.26424 -1.98669,3.68114 -3.3026,6.4574 -0.52895,1.11597 -0.98883,2.38684 -1.11865,3.09138 -0.0908,0.49271 -0.0887,0.63916 0.0121,0.84145 0.15685,0.31495 0.61325,0.81586 0.8419,0.92401 0.25351,0.11992 0.53921,0.28968 0.6794,0.4037 0.24705,0.20092 0.69014,0.24442 1.16013,0.11389 z"
       id="path860"
       inkscape:connector-curvature="0"
       transform="matrix(0.26458333,0,0,0.26458333,0,177)" />
    <path
       style="fill:#030303;fill-opacity:1;stroke:#1853ce;stroke-width:0.08902843;stroke-miterlimit:4;stroke-dasharray:none;stroke-opacity:1"
       d="m 399.84329,233.04207 -1.02222,-0.48747 0.40544,-0.10427 c 1.04119,-0.26778 2.05303,-1.53469 3.03688,-3.80244 0.20572,-0.47419 0.39077,-0.84545 0.4112,-0.82501 0.0434,0.0435 -1.672,5.57218 -1.75385,5.65247 -0.0304,0.0298 -0.51523,-0.16517 -1.07745,-0.43328 z"
       id="path862"
       inkscape:connector-curvature="0"
       transform="matrix(0.26458333,0,0,0.26458333,0,177)" />
    <path
       style="fill:#030303;fill-opacity:1;stroke:#1853ce;stroke-width:0.08902843;stroke-miterlimit:4;stroke-dasharray:none;stroke-opacity:1"
       d="m 395.10108,230.7969 c -0.38378,-0.18954 -0.7405,-0.35886 -0.79272,-0.37627 -0.0522,-0.0174 0.31072,-0.8094 0.80653,-1.75999 0.49581,-0.95058 0.90253,-1.70061 0.90383,-1.66673 0.001,0.0339 -0.12306,0.43388 -0.27636,0.88889 -0.44497,1.32074 -0.45613,2.32771 -0.0327,2.95165 0.11945,0.17603 0.18839,0.31713 0.1532,0.31357 -0.0352,-0.004 -0.37799,-0.16157 -0.76177,-0.35112 z"
       id="path864"
       inkscape:connector-curvature="0"
       transform="matrix(0.26458333,0,0,0.26458333,0,177)" />
    <path
       style="fill:#030303;fill-opacity:1;stroke:#1853ce;stroke-width:0.08902843;stroke-miterlimit:4;stroke-dasharray:none;stroke-opacity:1"
       d="m 392.28777,229.49223 c -0.84691,-0.30648 -9.15551,-4.36034 -9.15551,-4.46708 0,-0.0885 16.60935,-19.98247 20.22615,-24.22605 4.35888,-5.11426 8.04267,-9.25266 8.59411,-9.65468 0.19658,-0.14332 0.38326,-0.20299 0.57658,-0.18431 0.43555,0.0421 0.47242,0.42502 0.12457,1.29373 -1.62187,4.05044 -14.94914,29.52837 -18.82382,35.98578 -0.72507,1.20838 -1.01454,1.44351 -1.54208,1.25261 z m 0.96056,-2.09326 c 1.9555,-3.28797 7.06574,-12.78698 11.96692,-22.24434 2.32662,-4.48947 5.87027,-11.58727 5.81344,-11.64411 -0.0768,-0.0768 -3.89975,4.27948 -8.02998,9.1501 -3.4229,4.0365 -18.35535,21.95449 -18.35535,22.02526 0,0.11229 7.56574,3.86113 7.84112,3.8853 0.0349,0.003 0.37859,-0.52444 0.76385,-1.17221 z"
       id="path866"
       inkscape:connector-curvature="0"
       transform="matrix(0.26458333,0,0,0.26458333,0,177)" />
    <path
       style="fill:#030303;fill-opacity:1;stroke:#1853ce;stroke-width:0.08902843;stroke-miterlimit:4;stroke-dasharray:none;stroke-opacity:1"
       d="m 392.96114,229.77336 -0.25996,-0.1071 0.21552,-0.11484 c 0.26965,-0.14369 0.33603,-0.22726 0.89825,-1.1309 0.25117,-0.4037 0.47287,-0.71779 0.49266,-0.698 0.0368,0.0368 -0.38406,0.89699 -0.83479,1.70608 -0.24717,0.4437 -0.25642,0.44993 -0.51168,0.34476 z"
       id="path868"
       inkscape:connector-curvature="0"
       transform="matrix(0.26458333,0,0,0.26458333,0,177)" />
    <path
       style="fill:#030303;fill-opacity:1;stroke:#1853ce;stroke-width:0.08902843;stroke-miterlimit:4;stroke-dasharray:none;stroke-opacity:1"
       d=""
       id="path870"
       inkscape:connector-curvature="0"
       transform="matrix(0.26458333,0,0,0.26458333,0,177)" />
    <path
       style="fill:#030303;fill-opacity:1;stroke:#1853ce;stroke-width:0.08902843;stroke-miterlimit:4;stroke-dasharray:none;stroke-opacity:1"
       d=""
       id="path872"
       inkscape:connector-curvature="0"
       transform="matrix(0.26458333,0,0,0.26458333,0,177)" />
    <path
       style="fill:#030303;fill-opacity:1;stroke:#1853ce;stroke-width:0.08902843;stroke-miterlimit:4;stroke-dasharray:none;stroke-opacity:1"
       d="m 407.59189,195.63587 c 0.0404,-0.13404 8.27302,-10.00018 8.31195,-9.96125 0.0173,0.0173 -0.14294,0.58976 -0.35615,1.27207 -0.34114,1.09174 -0.59859,1.64293 -2.14604,4.59466 -0.96712,1.84476 -1.77394,3.33856 -1.79293,3.31957 -0.019,-0.019 0.17952,-0.49066 0.44113,-1.04816 0.77143,-1.64388 0.97136,-2.19951 0.9097,-2.52817 -0.0589,-0.31368 -0.18332,-0.39655 -0.59558,-0.39655 -0.343,0 -0.82172,0.45095 -2.6875,2.53161 -1.69757,1.89307 -2.1238,2.34622 -2.08458,2.21622 z"
       id="path874"
       inkscape:connector-curvature="0"
       transform="matrix(0.26458333,0,0,0.26458333,0,177)" />
    <path
       style="fill:none;stroke:#000000;stroke-width:0.26458332px;stroke-linecap:butt;stroke-linejoin:miter;stroke-opacity:1"
       d="m 132.77409,235.80152 3.19296,-2.12864 2.92688,9.57889 z"
       id="path876"
       inkscape:connector-curvature="0" />
    <path
       style="fill:#030303;fill-opacity:1;stroke:#1853ce;stroke-width:0.17805685;stroke-miterlimit:4;stroke-dasharray:none;stroke-opacity:1"
       d="m 522.40157,246.36845 c -0.77895,-0.94664 -1.91678,-3.19276 -6.90587,-13.63252 -3.28529,-6.87453 -6.163,-12.91857 -6.39492,-13.43121 l -0.42167,-0.93206 2.41306,-1.61502 c 1.32717,-0.88826 2.4366,-1.58883 2.46538,-1.55682 0.0951,0.10575 9.872,32.20564 9.82381,32.25383 -0.0259,0.0259 -0.46685,-0.46285 -0.97979,-1.0862 z"
       id="path878"
       inkscape:connector-curvature="0"
       transform="matrix(0.26458333,0,0,0.26458333,0,177)" />
    <path
       style="fill:#030303;fill-opacity:1;stroke:#1853ce;stroke-width:0.17805685;stroke-miterlimit:4;stroke-dasharray:none;stroke-opacity:1"
       d="m 510.2462,231.56686 -7.55958,-9.19675 2.47677,-1.65741 c 1.36223,-0.91157 2.4994,-1.63157 2.52705,-1.59999 0.19647,0.22439 10.25486,21.51139 10.19344,21.57281 -0.043,0.043 -3.47991,-4.06044 -7.63768,-9.11866 z"
       id="path880"
       inkscape:connector-curvature="0"
       transform="matrix(0.26458333,0,0,0.26458333,0,177)" />
    <path
       style="fill:#030303;fill-opacity:1;stroke:#1853ce;stroke-width:0.17805685;stroke-miterlimit:4;stroke-dasharray:none;stroke-opacity:1"
       d="m 558.8188,348.13154 c -7.13914,-1.4004 -12.50388,-7.51891 -13.10754,-14.94919 l -0.11088,-1.36499 -1.26353,-0.0984 c -0.69493,-0.0541 -41.42331,-1.37726 -90.50751,-2.94034 -49.0842,-1.56309 -89.944,-2.8837 -90.79955,-2.93471 l -1.55555,-0.0927 -7.1e-4,1.37584 c -0.004,7.51258 -4.62336,14.10003 -11.48664,16.38022 -5.17009,1.71766 -10.78137,0.70789 -15.11682,-2.72031 -3.50272,-2.76975 -5.81481,-7.00098 -6.3262,-11.57724 -0.94685,-8.47311 4.48888,-16.41755 12.61024,-18.43017 2.25392,-0.55857 5.55877,-0.53235 7.81532,0.062 l 1.62844,0.42891 21.0093,-39.95745 c 11.55511,-21.97659 21.04437,-40.09918 21.08725,-40.27242 0.0642,-0.25928 -0.91269,-0.7826 -5.52369,-2.95907 -3.65135,-1.72349 -5.55884,-2.71383 -5.47869,-2.84443 0.14914,-0.24299 34.63036,-41.66206 35.07392,-42.13101 0.30495,-0.3224 0.32202,-0.32178 0.66815,0.0243 0.35509,0.35508 0.3597,0.34664 14.07531,-25.73921 7.54605,-14.35193 13.81955,-26.23042 13.9411,-26.39665 0.12155,-0.16623 0.38894,-0.27464 0.5942,-0.24091 0.33246,0.0546 -1.08165,2.82661 -12.95491,25.39453 -7.33046,13.93327 -14.19523,27.0132 -15.25505,29.06653 l -1.92694,3.73331 -7.15289,22.84433 c -3.93409,12.56438 -7.18225,22.8976 -7.21813,22.9627 -0.0359,0.0651 -1.80468,-0.70793 -3.93065,-1.71785 -2.12597,-1.00992 -3.91983,-1.78318 -3.98636,-1.71836 -0.0665,0.0648 -9.60368,18.15411 -21.19365,40.19841 l -21.07269,40.08056 1.01597,0.54467 c 1.34618,0.7217 2.42461,1.47642 3.53069,2.47089 l 0.90872,0.81701 42.85184,-29.60693 42.85184,-29.60692 -0.4191,-1.23219 c -1.12622,-3.31122 -1.29329,-8.50015 -0.38326,-11.90326 1.73894,-6.50282 6.00861,-11.24738 11.49697,-12.7757 l 1.15555,-0.32178 0.0429,-0.96233 c 0.0236,-0.52928 0.32118,-20.60224 0.66124,-44.60656 0.34006,-24.00432 0.66987,-45.90422 0.73291,-48.66642 0.11454,-5.01913 0.11485,-5.0222 0.50522,-5.0222 h 0.3906 l -0.0633,3.51109 c -0.18661,10.34497 -1.2918,89.21879 -1.2918,92.19113 v 3.49728 h 1.48267 c 2.58552,0 5.37712,0.93295 7.65468,2.55818 1.32618,0.94635 3.33471,3.03674 4.25677,4.43025 3.91677,5.91948 4.40063,14.37643 1.19198,20.83366 l -0.70671,1.42221 0.48249,0.40422 c 0.48823,0.40903 17.91862,13.94188 57.70212,44.79955 l 21.84202,16.94156 1.53564,-1.47863 c 0.8446,-0.81324 2.03563,-1.78178 2.64674,-2.15234 0.61111,-0.37054 1.11111,-0.71162 1.11111,-0.75795 0,-0.0463 -7.6325,-16.07618 -16.96111,-35.62191 l -16.96113,-35.53768 -8.93961,-10.89832 c -4.91678,-5.99408 -9.28402,-11.3067 -9.70496,-11.80584 l -0.76535,-0.90752 3.02175,-2.00747 c 1.66197,-1.10411 3.02175,-2.09323 3.02175,-2.19805 0,-0.10482 -9.31995,-19.71734 -20.711,-43.58338 -11.39106,-23.86604 -20.71101,-43.44843 -20.71101,-43.51642 0,-0.068 0.18,-0.1234 0.4,-0.12314 0.35705,4.4e-4 2.62223,4.65711 21.10046,43.37756 11.38525,23.8574 20.74521,43.37699 20.79989,43.37688 0.0547,-1.2e-4 1.41943,-0.87991 3.03275,-1.95511 l 2.93332,-1.95491 0.23534,0.70557 c 0.12944,0.38807 2.65748,8.63141 5.61788,18.31853 5.19466,16.99812 5.37003,17.61965 5.02403,17.80483 -0.31081,0.16635 -0.46141,0.0766 -1.13175,-0.6746 l -0.77322,-0.86649 0.42695,0.97778 c 0.47262,1.08233 30.71878,64.4401 31.45077,65.88109 l 0.45902,0.90364 1.54453,-0.5166 c 4.92899,-1.64864 10.77811,-0.45833 14.87326,3.02672 2.41088,2.0517 4.48776,5.35951 5.32594,8.48253 0.57067,2.12625 0.57165,6.33754 0.002,8.43253 -0.86076,3.16544 -2.41199,5.77851 -4.7195,7.95004 -2.23119,2.09974 -4.83489,3.48411 -7.61685,4.04979 -1.47219,0.29938 -4.67158,0.34482 -5.99526,0.0852 z m -12.99876,-18.66373 c 0.33712,-2.30559 1.33352,-4.95053 2.62578,-6.9701 l 0.31618,-0.49411 -0.61244,-0.48366 c -0.33685,-0.26601 -18.33324,-14.23182 -39.992,-31.03513 l -39.37956,-30.55146 -0.53797,0.68495 c -3.86326,4.9188 -9.0258,7.08816 -14.2836,6.00214 -2.7082,-0.5594 -4.84814,-1.71028 -6.99648,-3.76279 -1.40844,-1.34562 -2.78156,-3.17629 -3.59942,-4.79883 -0.25876,-0.51333 -0.51943,-0.93333 -0.57928,-0.93333 -0.0598,0 -0.67849,0.38822 -1.37477,0.86272 -3.26301,2.22366 -83.77238,57.85803 -83.90154,57.97846 -0.0809,0.0754 0.17953,0.56697 0.57873,1.09228 1.37809,1.81345 2.36155,4.07569 3.15882,7.2662 l 0.15549,0.62222 1.86034,0.0577 c 1.02319,0.0317 41.90015,1.36184 90.83768,2.95575 48.93754,1.59391 89.54812,2.90795 90.24577,2.92006 l 1.26842,0.022 z m -24.78995,-90.50524 c -6.33482,-20.76391 -7.24644,-23.71039 -7.38046,-23.85455 -0.10175,-0.10944 -4.48117,2.61358 -5.13667,3.19385 -0.0394,0.0349 2.82777,6.13394 6.37154,13.55342 6.01773,12.59911 6.52123,13.58467 7.62414,14.9239 0.64951,0.78866 1.20897,1.40586 1.24326,1.37157 0.0343,-0.0343 -1.19051,-4.16898 -2.72181,-9.18819 z m -2.74232,1.94078 c -2.00614,-4.32362 -10.3634,-21.75348 -10.49204,-21.88211 -0.0828,-0.0828 -1.31823,0.62728 -2.74532,1.57804 l -2.5947,1.72867 0.30891,0.40928 c 0.50205,0.66517 16.1165,19.63278 16.16201,19.63278 0.0229,0 -0.26457,-0.66 -0.63886,-1.46666 z M 402.8788,227.83608 c 1.01706,-3.20184 2.44541,-7.74152 3.17412,-10.08817 0.7287,-2.34666 2.75177,-8.82474 4.49571,-14.39573 1.74393,-5.571 3.15173,-10.14815 3.12843,-10.17144 -0.0233,-0.0233 -1.87851,3.45065 -4.1227,7.71988 -5.93756,11.29533 -6.04672,11.50147 -7.27416,13.73619 -0.61761,1.12444 -2.46033,4.64442 -4.09493,7.82218 -1.6346,3.17777 -3.24544,6.26922 -3.57963,6.8699 l -0.60763,1.09215 1.17144,0.54818 c 0.64428,0.3015 1.379,0.71146 1.6327,0.91102 0.2537,0.19956 0.86867,0.48511 1.36659,0.63456 0.49792,0.14945 1.26531,0.4644 1.70531,0.6999 0.44,0.23549 0.88,0.43149 0.97777,0.43554 0.0978,0.004 1.00992,-2.61233 2.02698,-5.81416 z m -7.44693,-1.82155 c 1.10249,-2.10221 3.38134,-6.42219 5.06411,-9.59995 1.68277,-3.17776 4.16369,-7.89774 5.51315,-10.48884 1.34947,-2.59109 3.94831,-7.55107 5.77521,-11.02216 1.82691,-3.4711 3.44878,-6.67108 3.60416,-7.11108 0.58848,-1.66643 0.82312,-2.51226 0.68162,-2.45709 -0.18989,0.074 0.41882,-0.65184 -17.67106,21.07268 l -15.57509,18.70447 2.43618,1.1868 c 4.92476,2.39913 7.95004,3.77191 8.05723,3.65614 0.0605,-0.0653 1.012,-1.83876 2.11449,-3.94097 z"
       id="path882"
       inkscape:connector-curvature="0"
       transform="matrix(0.26458333,0,0,0.26458333,0,177)" />
    <path
       style="fill:#030303;fill-opacity:1;stroke:#1853ce;stroke-width:0.17805685;stroke-miterlimit:4;stroke-dasharray:none;stroke-opacity:1"
       d=""
       id="path884"
       inkscape:connector-curvature="0"
       transform="matrix(0.26458333,0,0,0.26458333,0,177)" />
    <path
       style="fill:#030303;fill-opacity:1;stroke:#1853ce;stroke-width:0.17805685;stroke-miterlimit:4;stroke-dasharray:none;stroke-opacity:1"
       d=""
       id="path886"
       inkscape:connector-curvature="0"
       transform="matrix(0.26458333,0,0,0.26458333,0,177)" />
    <path
       style="fill:none;stroke:#000000;stroke-width:0.26458332px;stroke-linecap:butt;stroke-linejoin:miter;stroke-opacity:1"
       d="m 114.58165,265.39127 9.78365,-1.69333 -10.72439,-4.32738 v 5.07997 c 0,0 -0.56444,1.12888 0.94074,0.94074 z"
       id="path888"
       inkscape:connector-curvature="0" />
    <path
       style="fill:#030303;fill-opacity:1;stroke:#1853ce;stroke-width:0.7122274;stroke-miterlimit:4;stroke-dasharray:none;stroke-opacity:1"
       d="m 444.14556,327.37273 c -14.65877,-0.27552 -13.51104,0.37723 -13.51104,-7.68422 0,-3.70809 0.17976,-6.74198 0.39946,-6.74198 0.84754,0 34.1258,13.67646 34.76481,14.28739 0.40678,0.38891 -1.71508,0.58355 -5.33331,0.48924 -3.30487,-0.0862 -10.64883,-0.24384 -16.31992,-0.35043 z"
       id="path890"
       inkscape:connector-curvature="0"
       transform="matrix(0.26458333,0,0,0.26458333,0,177)" />
    <path
       style="fill:#030303;fill-opacity:1;stroke:#1853ce;stroke-width:0.7122274;stroke-miterlimit:4;stroke-dasharray:none;stroke-opacity:1"
       d=""
       id="path892"
       inkscape:connector-curvature="0"
       transform="matrix(0.26458333,0,0,0.26458333,0,177)" />
    <path
       style="fill:#030303;fill-opacity:1;stroke:#1853ce;stroke-width:0.2518104;stroke-miterlimit:4;stroke-dasharray:none;stroke-opacity:1"
       d="m 430.25945,333.14566 c -0.38649,-0.28261 -0.41743,-0.59932 -0.261,-2.67158 l 0.17748,-2.35097 2.53853,0.15197 c 1.39619,0.0836 7.29026,0.28413 13.09793,0.44567 5.80768,0.16154 10.69596,0.36377 10.86286,0.44939 0.37478,0.19228 -23.54244,4.31839 -24.95687,4.30547 -0.56125,-0.005 -1.21777,-0.15361 -1.45893,-0.32995 z"
       id="path894"
       inkscape:connector-curvature="0"
       transform="matrix(0.26458333,0,0,0.26458333,0,177)" />
    <path
       style="fill:#030303;fill-opacity:1;stroke:#1853ce;stroke-width:0.2518104;stroke-miterlimit:4;stroke-dasharray:none;stroke-opacity:1"
       d="m 557.70374,347.66177 c -4.29068,-1.17707 -8.04005,-4.32925 -10.0404,-8.4412 -0.89672,-1.84332 -1.24793,-2.94451 -1.57542,-4.93958 -0.42051,-2.56177 -0.42315,-2.56769 -1.19695,-2.68757 -0.42653,-0.0661 -9.82643,-0.40856 -20.88867,-0.76107 -11.06224,-0.35251 -28.81394,-0.92414 -39.44822,-1.2703 -10.63429,-0.34616 -19.68521,-0.5698 -20.11316,-0.49698 -0.42795,0.0728 -7.65919,1.31916 -16.06942,2.76964 -8.41023,1.45047 -15.85639,2.63723 -16.54703,2.63723 -0.69064,0 -1.50283,-0.13161 -1.80486,-0.29248 -1.09013,-0.58061 -1.18279,-0.92723 -1.01395,-3.793 l 0.15924,-2.70271 -1.73283,-7.5e-4 c -0.95306,-5.8e-4 -15.64863,-0.45297 -32.65682,-1.00542 -17.00819,-0.55245 -31.5017,-1.00461 -32.2078,-1.0048 l -1.28382,-3.5e-4 -0.14258,2.577 c -0.2525,4.56333 -1.65785,7.69002 -4.9559,11.02604 -3.30439,3.34245 -6.64417,4.75022 -11.26935,4.75022 -2.9026,0 -4.82575,-0.47374 -7.46305,-1.83843 -2.33351,-1.20749 -5.0454,-3.76578 -6.36601,-6.00544 -3.03252,-5.14295 -3.18139,-12.14261 -0.36253,-17.04616 3.77358,-6.56433 10.42187,-9.62766 17.74031,-8.17419 1.21675,0.24165 2.2504,0.3978 2.297,0.347 0.10415,-0.11354 23.14355,-43.94445 32.69064,-62.19175 3.83443,-7.32873 7.53102,-14.38272 8.21463,-15.67554 1.0269,-1.94201 1.18834,-2.41636 0.92879,-2.7291 -0.17278,-0.20819 -2.6203,-1.4946 -5.43893,-2.85869 -2.81863,-1.36409 -5.08594,-2.58878 -5.03845,-2.72154 0.0475,-0.13275 7.89275,-9.63286 17.43393,-21.11135 13.03162,-15.67766 17.45419,-20.83915 17.77604,-20.74604 0.6564,0.18988 0.78509,-0.0388 11.76103,-20.89574 3.49289,-6.63734 6.39351,-12.11503 6.44581,-12.17265 0.0523,-0.0576 0.15788,-0.042 0.23461,0.0348 0.0767,0.0767 -3.98091,7.98687 -9.01698,17.57807 -5.03607,9.5912 -9.58496,18.28707 -10.10863,19.32415 -0.88366,1.75 -2.57117,6.9804 -12.45116,38.59213 -1.42618,4.56317 -2.68185,8.39991 -2.79037,8.52609 -0.11319,0.13161 -1.74939,-0.48472 -3.83781,-1.44563 -2.00227,-0.92128 -3.73386,-1.67505 -3.84798,-1.67505 -0.25018,0 -1.73344,2.78991 -24.63971,46.34568 -9.87845,18.78365 -17.92383,34.18002 -17.87862,34.21416 0.0452,0.0342 0.70444,0.41528 1.46497,0.84698 0.76052,0.43169 1.99706,1.29282 2.74785,1.91361 0.75079,0.62079 1.48617,1.0592 1.63419,0.97424 0.45382,-0.26047 7.85524,-5.36189 39.86691,-27.47823 16.93905,-11.70291 34.1358,-23.57954 38.215,-26.39249 4.0792,-2.81296 7.44941,-5.13782 7.48936,-5.16637 0.0399,-0.0285 -0.16944,-0.88659 -0.46532,-1.90677 -0.38187,-1.31668 -0.57618,-2.84993 -0.66967,-5.28434 -0.16695,-4.347 0.23656,-6.37508 1.99386,-10.02121 1.08563,-2.25255 1.57171,-2.93925 3.31308,-4.68053 2.08019,-2.08009 3.73141,-3.11185 6.35517,-3.97101 l 1.29742,-0.42484 0.13831,-2.31285 c 0.0761,-1.27207 0.37551,-19.22382 0.66543,-39.89277 0.28992,-20.66894 0.57722,-37.62999 0.63844,-37.69122 0.0612,-0.0612 0.16577,-0.0569 0.23232,0.01 0.0666,0.0666 0.011,7.12816 -0.12351,15.69246 -0.4858,30.93958 -0.75173,51.36128 -0.75173,57.72828 v 6.49188 h 1.3704 c 3.62961,0 6.83669,1.41145 9.64719,4.24575 2.25903,2.27818 3.35235,4.01247 4.33505,6.87652 1.91044,5.56796 1.56928,11.59305 -0.94026,16.6056 -0.33144,0.66201 -0.5385,1.30737 -0.46015,1.43415 0.0784,0.12678 3.16538,2.57679 6.86006,5.44446 3.69468,2.86767 21.6262,16.78862 39.84783,30.93546 18.22163,14.14684 33.19356,25.72152 33.27096,25.72152 0.0774,0 0.89477,-0.65837 1.81638,-1.46305 0.92161,-0.80468 2.14892,-1.80096 2.72735,-2.21394 l 1.0517,-0.7509 -12.50685,-26.25875 c -6.87876,-14.44231 -14.5362,-30.50072 -17.01652,-35.68537 l -4.50967,-9.42662 -8.6738,-10.56128 c -4.77059,-5.8087 -9.09598,-11.0793 -9.61197,-11.71244 l -0.93818,-1.15116 2.88664,-1.94696 c 1.58765,-1.07083 2.88664,-2.09696 2.88664,-2.28029 0,-0.43109 -1.47731,-3.57113 -18.0839,-38.4377 -11.6688,-24.49936 -14.32774,-30.26886 -13.50502,-29.30386 0.0491,0.0576 1.05524,2.14122 2.2358,4.63022 4.26211,8.98581 24.34088,50.92397 27.18704,56.78507 2.20163,4.5338 3.00435,5.9644 3.28603,5.85631 0.20501,-0.0787 1.547,-0.93088 2.9822,-1.89379 l 2.60946,-1.75076 1.32595,4.31683 c 8.37233,27.25727 9.70698,31.785 9.44625,32.04573 -0.0962,0.0962 -0.4969,-0.21963 -0.89046,-0.70184 -0.39355,-0.4822 -0.78495,-0.80733 -0.86977,-0.72251 -0.14061,0.1406 6.02029,13.17473 25.00024,52.89102 3.76664,7.88185 6.94718,14.51738 7.06788,14.74564 0.20195,0.38194 0.34505,0.37485 1.79529,-0.0889 2.27147,-0.72634 5.69934,-0.87113 8.08071,-0.34132 5.3969,1.20069 9.95517,5.46363 11.79804,11.03363 0.41621,1.25798 0.51288,2.19577 0.5099,4.94638 -0.003,3.05259 -0.071,3.57444 -0.67237,5.18658 -1.07442,2.88011 -1.87658,4.10867 -4.16716,6.38224 -2.31999,2.30278 -4.19459,3.42058 -6.93231,4.13367 -1.83117,0.47696 -6.04715,0.47776 -7.7833,0.002 z m -111.56837,-16.2202 c 7.28937,-1.25186 13.46748,-2.36095 13.72912,-2.46462 0.42659,-0.16904 -7.96826,-0.50119 -24.25739,-0.95977 l -5.67983,-0.15991 -0.17595,2.49024 c -0.1664,2.35498 -0.14656,2.51413 0.36512,2.93021 0.3335,0.27118 0.96778,0.43998 1.6533,0.43998 0.61172,0 7.07625,-1.02426 14.36563,-2.27613 z m 99.74954,-1.18082 c 0.40718,-2.42899 0.95204,-4.13375 1.96866,-6.1596 l 1.10394,-2.19983 -39.11336,-30.35835 c -21.51234,-16.69709 -39.53307,-30.67123 -40.04606,-31.05364 l -0.93271,-0.69528 -2.22416,2.20828 c -3.58546,3.55988 -6.38821,4.73934 -10.75449,4.52574 -2.77537,-0.13578 -4.4863,-0.65276 -6.42883,-1.94256 -1.62975,-1.08212 -4.04652,-3.56792 -5.04623,-5.19036 -0.47411,-0.76942 -1.04735,-1.63994 -1.27388,-1.93448 l -0.41186,-0.53554 -1.72516,1.14947 c -0.94883,0.6322 -12.76063,8.77476 -26.24845,18.09456 -13.48781,9.3198 -31.89778,22.03624 -40.91105,28.25875 -9.01327,6.22251 -16.39076,11.44435 -16.39442,11.60409 -0.004,0.15975 0.49651,1.10654 1.11148,2.104 0.64434,1.04509 1.46997,2.91867 1.94846,4.42161 0.7826,2.45812 0.8693,2.60817 1.50814,2.61003 0.66982,0.002 60.25679,1.91371 64.75282,2.07751 l 2.32558,0.0847 v -8.27234 c 0,-7.77213 0.0266,-8.26262 0.43998,-8.11141 0.24198,0.0885 9.75913,3.91898 21.14922,8.51214 l 20.70925,8.3512 -1.85316,0.37414 -1.85317,0.37414 5.154,0.18522 c 2.8347,0.10188 19.35263,0.64044 36.70652,1.19681 32.33233,1.03658 35.01222,1.12756 35.75232,1.21383 0.31346,0.0365 0.47103,-0.20328 0.58662,-0.89285 z m -80.06363,-2.24008 c 1.38208,-0.22954 2.42348,-0.50028 2.31423,-0.60166 -0.19473,-0.1807 -32.72327,-13.39552 -36.11799,-14.67305 -0.94984,-0.35745 -1.82665,-0.64991 -1.94847,-0.64991 -0.12278,0 -0.22148,3.36467 -0.22148,7.55033 0,5.80958 0.0725,7.57758 0.31427,7.66857 0.27192,0.10231 25.72225,0.99016 31.18676,1.08796 1.0779,0.0193 3.09061,-0.15271 4.47268,-0.38224 z m 57.66637,-81.45392 c -0.23029,-0.80996 -1.20673,-4.0748 -2.16987,-7.25519 -4.83667,-15.97118 -7.31348,-23.9083 -7.53135,-24.13475 -0.26047,-0.27073 -1.22645,0.21395 -3.90659,1.96011 l -1.55174,1.01098 0.46014,1.15378 c 0.56824,1.42489 7.75163,16.51306 10.53537,22.12876 1.92916,3.89173 2.76765,5.27241 3.87362,6.37838 0.69107,0.69107 0.75829,0.40354 0.29042,-1.24207 z m -5.00384,-5.55814 c -0.56161,-1.40331 -10.34625,-21.91965 -10.55207,-22.12547 -0.0564,-0.0564 -0.36686,0.0317 -0.68982,0.19583 -0.94168,0.47859 -4.97916,3.12419 -4.97832,3.26211 5e-4,0.0691 2.85534,3.58524 6.34427,7.81355 3.48893,4.22832 7.19203,8.71902 8.22912,9.97933 1.03708,1.26032 1.96205,2.29797 2.05548,2.30588 0.0934,0.008 -0.0905,-0.63614 -0.40866,-1.43123 z M 402.41139,229.81822 c 2.39288,-7.24699 11.34566,-36.04245 11.34566,-36.49188 0,-0.58642 -1.40578,1.89177 -5.90721,10.41355 -2.59198,4.90695 -5.64391,10.67535 -6.78208,12.81866 -3.20347,6.03253 -7.03899,13.42207 -7.11824,13.71406 -0.0972,0.35795 6.6507,3.69448 7.02819,3.47514 0.0927,-0.0538 0.73783,-1.82214 1.43368,-3.92953 z m -8.67349,-0.24897 c 0.37635,-0.59631 13.71766,-25.94507 18.4748,-35.10247 3.50105,-6.73948 4.67124,-9.58901 3.81634,-9.29314 -0.29392,0.10172 -33.52124,39.94488 -33.40425,40.05532 0.10268,0.0969 9.49532,4.52774 10.01344,4.72367 0.62996,0.23821 0.7292,0.20362 1.09967,-0.38338 z"
       id="path896"
       inkscape:connector-curvature="0"
       transform="matrix(0.26458333,0,0,0.26458333,0,177)" />
    <path
       style="fill:#030303;fill-opacity:1;stroke:#1853ce;stroke-width:0.2518104;stroke-miterlimit:4;stroke-dasharray:none;stroke-opacity:1"
       d="m 443.04683,326.92114 c -9.02665,-0.20379 -10.20661,-0.32318 -11.14105,-1.12721 l -0.67543,-0.58118 v -5.65762 c 0,-3.11168 0.077,-5.73451 0.17106,-5.8285 0.25497,-0.25471 29.75029,11.66213 32.33036,13.06226 0.61802,0.33539 0.0189,0.36877 -6.1029,0.34006 -3.7335,-0.0175 -10.29542,-0.11103 -14.58204,-0.20781 z"
       id="path898"
       inkscape:connector-curvature="0"
       transform="matrix(0.26458333,0,0,0.26458333,0,177)" />
    <path
       style="fill:none;stroke:#000000;stroke-width:0.26458332px;stroke-linecap:butt;stroke-linejoin:miter;stroke-opacity:1"
       d="m 134.50361,256.28971 -3.45905,-4.92249 6.25289,1.19736 z"
       id="path900"
       inkscape:connector-curvature="0" />
    <path
       style="fill:#030303;fill-opacity:1;stroke:#1853ce;stroke-width:0.17805685;stroke-miterlimit:4;stroke-dasharray:none;stroke-opacity:1"
       d="m 502.56658,290.40276 c -3.19961,-4.55317 -5.78493,-8.31103 -5.74517,-8.35079 0.0619,-0.0619 14.42169,10.97716 15.01505,11.54288 0.16329,0.15568 -0.21448,0.77251 -1.61973,2.64472 l -1.83268,2.44168 z"
       id="path902"
       inkscape:connector-curvature="0"
       transform="matrix(0.26458333,0,0,0.26458333,0,177)" />
    <path
       style="fill:#030303;fill-opacity:1;stroke:#1853ce;stroke-width:0.17805685;stroke-miterlimit:4;stroke-dasharray:none;stroke-opacity:1"
       d="m 506.07946,287.61174 c -3.53811,-2.75392 -6.41383,-5.02623 -6.39048,-5.04958 0.0233,-0.0233 4.10005,0.73255 9.05933,1.67977 6.50846,1.24311 8.99362,1.78279 8.93331,1.93996 -0.19079,0.4972 -4.7849,6.45949 -4.9689,6.44871 -0.11018,-0.006 -3.09515,-2.26494 -6.63326,-5.01886 z"
       id="path904"
       inkscape:connector-curvature="0"
       transform="matrix(0.26458333,0,0,0.26458333,0,177)" />
    <path
       style="fill:none;stroke:#000000;stroke-width:0.26458332px;stroke-linecap:butt;stroke-linejoin:miter;stroke-opacity:1"
       d="m 108.09057,252.92652 -3.62183,0.84666 1.55221,-3.05739 z"
       id="path906"
       inkscape:connector-curvature="0" />
    <path
       style="fill:#030303;fill-opacity:1;stroke:#1853ce;stroke-width:0.17805685;stroke-miterlimit:4;stroke-dasharray:none;stroke-opacity:1"
       d="m 397.0463,287.20721 c 0,-0.0671 0.8586,-1.80286 1.908,-3.85734 l 1.908,-3.73542 1.45238,1.57133 1.45238,1.57133 -2.87149,1.99384 c -3.18778,2.21346 -3.84927,2.63556 -3.84927,2.45626 z"
       id="path908"
       inkscape:connector-curvature="0"
       transform="matrix(0.26458333,0,0,0.26458333,0,177)" />
    <path
       style="fill:#030303;fill-opacity:1;stroke:#1853ce;stroke-width:0.17805685;stroke-miterlimit:4;stroke-dasharray:none;stroke-opacity:1"
       d="m 396.90831,288.99502 c 0.0708,-0.0748 1.82819,-1.31109 3.90537,-2.74737 l 3.7767,-2.61143 1.36873,1.43641 c 0.75281,0.79002 1.31538,1.48482 1.25016,1.54399 -0.0652,0.0592 -2.27856,0.60454 -4.91855,1.21193 -2.63998,0.60739 -4.95997,1.14891 -5.15553,1.20338 -0.19555,0.0545 -0.29765,0.0379 -0.22688,-0.0369 z"
       id="path910"
       inkscape:connector-curvature="0"
       transform="matrix(0.26458333,0,0,0.26458333,0,177)" />
    <path
       style="fill:none;stroke:#000000;stroke-width:0.26458332px;stroke-linecap:butt;stroke-linejoin:miter;stroke-opacity:1"
       d="m 119.89681,227.05627 0.42333,3.0574 1.08184,-3.0574 z"
       id="path912"
       inkscape:connector-curvature="0" />
    <path
       style="fill:#030303;fill-opacity:1;stroke:#1853ce;stroke-width:0.04451421;stroke-miterlimit:4;stroke-dasharray:none;stroke-opacity:1"
       d="m 455.84858,195.84565 c 0.0113,-0.14666 0.0337,-1.59165 0.0496,-3.21109 l 0.0289,-2.94443 h 1.08345 c 0.5959,0 1.08345,0.0108 1.08345,0.024 0,0.0245 -2.03123,5.77178 -2.18274,6.17595 l -0.0833,0.22222 z"
       id="path914"
       inkscape:connector-curvature="0"
       transform="matrix(0.26458333,0,0,0.26458333,0,177)" />
    <path
       style="fill:#030303;fill-opacity:1;stroke:#1853ce;stroke-width:0.04451421;stroke-miterlimit:4;stroke-dasharray:none;stroke-opacity:1"
       d="m 454.25724,193.34856 c -0.26466,-1.92658 -0.49101,-3.53788 -0.503,-3.58065 -0.02,-0.0712 0.0275,-0.0778 0.56496,-0.0778 h 0.58674 l -0.0276,0.63333 c -0.0152,0.34833 -0.0403,1.88332 -0.0558,3.41109 -0.0155,1.52777 -0.0408,2.85407 -0.0561,2.94733 -0.0196,0.11858 -0.17265,-0.88356 -0.50917,-3.33332 z"
       id="path916"
       inkscape:connector-curvature="0"
       transform="matrix(0.26458333,0,0,0.26458333,0,177)" />
    <path
       style="fill:#030303;fill-opacity:1;stroke:#1853ce;stroke-width:0.04451421;stroke-miterlimit:4;stroke-dasharray:none;stroke-opacity:1"
       d="m 455.4419,193.04567 c 2e-4,-0.17111 0.008,-0.23567 0.0179,-0.14345 0.01,0.0922 0.009,0.23221 -3.5e-4,0.31111 -0.01,0.0789 -0.0177,0.003 -0.0175,-0.16766 z"
       id="path918"
       inkscape:connector-curvature="0"
       transform="matrix(0.26458333,0,0,0.26458333,0,177)" />
    <text
       xml:space="preserve"
       style="font-style:normal;font-weight:normal;font-size:10.58333302px;line-height:1.25;font-family:sans-serif;letter-spacing:0px;word-spacing:0px;fill:#000000;fill-opacity:1;stroke:none;stroke-width:0.26458332"
       x="119.86919"
       y="196.42163"
       id="text922"><tspan
         sodipodi:role="line"
         id="tspan920"
         x="119.86919"
         y="196.42163"
         style="stroke-width:0.26458332">u1</tspan></text>
    <text
       xml:space="preserve"
       style="font-style:normal;font-weight:normal;font-size:10.58333302px;line-height:1.25;font-family:sans-serif;letter-spacing:0px;word-spacing:0px;fill:#000000;fill-opacity:1;stroke:none;stroke-width:0.26458332"
       x="85.145706"
       y="275.31445"
       id="text926"><tspan
         sodipodi:role="line"
         id="tspan924"
         x="85.145706"
         y="275.31445"
         style="stroke-width:0.26458332">u2</tspan></text>
    <text
       xml:space="preserve"
       style="font-style:normal;font-weight:normal;font-size:10.58333302px;line-height:1.25;font-family:sans-serif;letter-spacing:0px;word-spacing:0px;fill:#000000;fill-opacity:1;stroke:none;stroke-width:0.26458332"
       x="149.27107"
       y="279.70477"
       id="text930"><tspan
         sodipodi:role="line"
         id="tspan928"
         x="149.27107"
         y="279.70477"
         style="stroke-width:0.26458332">u3</tspan></text>
    <text
       xml:space="preserve"
       style="font-style:normal;font-weight:normal;font-size:10.58333302px;line-height:1.25;font-family:sans-serif;letter-spacing:0px;word-spacing:0px;fill:#000000;fill-opacity:1;stroke:none;stroke-width:0.26458332"
       x="120.13528"
       y="237.93016"
       id="text934"><tspan
         sodipodi:role="line"
         id="tspan932"
         x="120.13528"
         y="237.93016"
         style="stroke-width:0.26458332">u4</tspan></text>
  </g>
</svg>
