<?xml version="1.0" encoding="UTF-8" standalone="no"?>
<!-- Created with Inkscape (http://www.inkscape.org/) -->

<svg
   xmlns:dc="http://purl.org/dc/elements/1.1/"
   xmlns:cc="http://creativecommons.org/ns#"
   xmlns:rdf="http://www.w3.org/1999/02/22-rdf-syntax-ns#"
   xmlns:svg="http://www.w3.org/2000/svg"
   xmlns="http://www.w3.org/2000/svg"
   xmlns:sodipodi="http://sodipodi.sourceforge.net/DTD/sodipodi-0.dtd"
   xmlns:inkscape="http://www.inkscape.org/namespaces/inkscape"
   width="240mm"
   height="120mm"
   viewBox="0 0 240 120"
   version="1.1"
   id="svg8"
   inkscape:version="0.92.3 (2405546, 2018-03-11)"
   sodipodi:docname="kmn.svg">
  <defs
     id="defs2" />
  <sodipodi:namedview
     id="base"
     pagecolor="#ffffff"
     bordercolor="#666666"
     borderopacity="1.0"
     inkscape:pageopacity="0.0"
     inkscape:pageshadow="2"
     inkscape:zoom="0.99437388"
     inkscape:cx="344.01989"
     inkscape:cy="180.70923"
     inkscape:document-units="mm"
     inkscape:current-layer="layer1"
     showgrid="false"
     showborder="true"
     width="200mm"
     showguides="true"
     inkscape:guide-bbox="true"
     inkscape:window-width="1920"
     inkscape:window-height="1031"
     inkscape:window-x="0"
     inkscape:window-y="0"
     inkscape:window-maximized="1">
    <inkscape:grid
       type="xygrid"
       id="grid815"
       units="mm"
       spacingx="10"
       spacingy="10"
       empspacing="4"
       dotted="false" />
  </sodipodi:namedview>
  <metadata
     id="metadata5">
    <rdf:RDF>
      <cc:Work
         rdf:about="">
        <dc:format>image/svg+xml</dc:format>
        <dc:type
           rdf:resource="http://purl.org/dc/dcmitype/StillImage" />
        <dc:title></dc:title>
      </cc:Work>
    </rdf:RDF>
  </metadata>
  <g
     inkscape:label="Layer 1"
     inkscape:groupmode="layer"
     id="layer1"
     transform="translate(0,-177)">
    <path
       style="fill:#e75858;fill-opacity:1;stroke:#1853ce;stroke-width:0.26649934;stroke-miterlimit:4;stroke-dasharray:none;stroke-opacity:1"
       d="m 55.976941,212.88553 c -3.55144,-1.32874 -5.38214,-4.23312 -4.50776,-7.15152 0.38935,-1.29954 2.14164,-3.25462 3.59585,-4.01199 0.80551,-0.41951 1.5829,-0.56449 3.09003,-0.57625 1.73268,-0.0135 2.23246,0.0961 3.58065,0.78529 3.65234,1.86709 4.58298,5.38889 2.26837,8.58412 -1.20933,1.66942 -2.87526,2.51947 -5.16358,2.63474 -1.17678,0.0593 -2.26766,-0.0414 -2.86356,-0.26439 z"
       id="path830"
       inkscape:connector-curvature="0" />
    <path
       style="fill:#e75858;fill-opacity:1;stroke:#1853ce;stroke-width:0.26649934;stroke-miterlimit:4;stroke-dasharray:none;stroke-opacity:1"
       d="m 84.193001,213.06047 c -3.55144,-1.32874 -5.38214,-4.23311 -4.50776,-7.15152 0.38935,-1.29954 2.14164,-3.25461 3.59584,-4.01198 0.80551,-0.41952 1.5829,-0.5645 3.09004,-0.57626 1.73267,-0.0135 2.23245,0.0961 3.58065,0.78529 3.65234,1.86709 4.58298,5.38889 2.26837,8.58412 -1.20933,1.66943 -2.87526,2.51947 -5.16358,2.63474 -1.17678,0.0593 -2.26766,-0.0414 -2.86356,-0.26439 z"
       id="path830-4"
       inkscape:connector-curvature="0" />
    <path
       style="fill:#e75858;fill-opacity:1;stroke:#1853ce;stroke-width:0.26649934;stroke-miterlimit:4;stroke-dasharray:none;stroke-opacity:1"
       d="m 108.14024,213.59263 c -3.55145,-1.32874 -5.38214,-4.23311 -4.50777,-7.15152 0.38936,-1.29954 2.14164,-3.25461 3.59585,-4.01198 0.80551,-0.41952 1.5829,-0.5645 3.09003,-0.57626 1.73268,-0.0135 2.23246,0.0961 3.58066,0.78529 3.65234,1.86709 4.58298,5.38889 2.26836,8.58412 -1.20932,1.66943 -2.87525,2.51947 -5.16357,2.63474 -1.17679,0.0593 -2.26767,-0.0414 -2.86356,-0.26439 z"
       id="path830-1"
       inkscape:connector-curvature="0" />
    <text
       xml:space="preserve"
       style="font-style:normal;font-weight:normal;font-size:10.58333302px;line-height:1.25;font-family:sans-serif;letter-spacing:0px;word-spacing:0px;fill:#000000;fill-opacity:1;stroke:none;stroke-width:0.26458332"
       x="131.44368"
       y="210.78998"
       id="text864"><tspan
         sodipodi:role="line"
         id="tspan862"
         x="131.44368"
         y="210.78998"
         style="stroke-width:0.26458332">...</tspan></text>
    <path
       style="fill:#e75858;fill-opacity:1;stroke:#1853ce;stroke-width:0.26649934;stroke-miterlimit:4;stroke-dasharray:none;stroke-opacity:1"
       d="m 153.37389,213.85872 c -3.55144,-1.32874 -5.38214,-4.23312 -4.50776,-7.15152 0.38935,-1.29954 2.14164,-3.25462 3.59585,-4.01199 0.80551,-0.41951 1.5829,-0.56449 3.09003,-0.57625 1.73268,-0.0135 2.23246,0.0961 3.58065,0.78529 3.65234,1.86709 4.58298,5.38889 2.26837,8.58412 -1.20933,1.66942 -2.87526,2.51947 -5.16358,2.63474 -1.17678,0.0593 -2.26766,-0.0414 -2.86356,-0.26439 z"
       id="path830-8"
       inkscape:connector-curvature="0" />
    <text
       xml:space="preserve"
       style="font-style:normal;font-weight:normal;font-size:10.58333302px;line-height:1.25;font-family:sans-serif;letter-spacing:0px;word-spacing:0px;fill:#000000;fill-opacity:1;stroke:none;stroke-width:0.26458332"
       x="35.920845"
       y="221.43318"
       id="text874"><tspan
         sodipodi:role="line"
         id="tspan872"
         x="35.920845"
         y="221.43318"
         style="stroke-width:0.26458332">$k_1$</tspan></text>
    <text
       xml:space="preserve"
       style="font-style:normal;font-weight:normal;font-size:10.58333302px;line-height:1.25;font-family:sans-serif;letter-spacing:0px;word-spacing:0px;fill:#000000;fill-opacity:1;stroke:none;stroke-width:0.26458332"
       x="69.713051"
       y="222.76358"
       id="text878"><tspan
         sodipodi:role="line"
         id="tspan876"
         x="69.713051"
         y="222.76358"
         style="stroke-width:0.26458332">$k_2$</tspan></text>
    <text
       xml:space="preserve"
       style="font-style:normal;font-weight:normal;font-size:10.58333302px;line-height:1.25;font-family:sans-serif;letter-spacing:0px;word-spacing:0px;fill:#000000;fill-opacity:1;stroke:none;stroke-width:0.26458332"
       x="107.49645"
       y="225.95654"
       id="text882"><tspan
         sodipodi:role="line"
         id="tspan880"
         x="107.49645"
         y="225.95654"
         style="stroke-width:0.26458332">$k_3$</tspan></text>
    <text
       xml:space="preserve"
       style="font-style:normal;font-weight:normal;font-size:10.58333302px;line-height:1.25;font-family:sans-serif;letter-spacing:0px;word-spacing:0px;fill:#000000;fill-opacity:1;stroke:none;stroke-width:0.26458332"
       x="164.70372"
       y="210.5239"
       id="text886"><tspan
         sodipodi:role="line"
         id="tspan884"
         x="164.70372"
         y="210.5239"
         style="stroke-width:0.26458332">$k_m$</tspan></text>
    <path
       style="fill:#6b58e7;fill-opacity:1;stroke:#1853ce;stroke-width:0.26649934;stroke-miterlimit:4;stroke-dasharray:none;stroke-opacity:1"
       d="m 31.509098,280.64488 c -3.55144,-1.32874 -5.38214,-4.23312 -4.50776,-7.15152 0.38935,-1.29954 2.14164,-3.25462 3.59585,-4.01199 0.80551,-0.41951 1.5829,-0.56449 3.09003,-0.57625 1.732679,-0.0135 2.23246,0.0961 3.580649,0.78529 3.652341,1.86709 4.58298,5.38889 2.26837,8.58412 -1.20933,1.66942 -2.875259,2.51947 -5.163579,2.63474 -1.176781,0.0593 -2.267661,-0.0414 -2.86356,-0.26439 z"
       id="path830-3"
       inkscape:connector-curvature="0" />
    <path
       style="fill:#6b58e7;fill-opacity:1;stroke:#1853ce;stroke-width:0.26649934;stroke-miterlimit:4;stroke-dasharray:none;stroke-opacity:1"
       d="m 69.026425,281.7092 c -3.55144,-1.32874 -5.38214,-4.23312 -4.50776,-7.15152 0.38935,-1.29954 2.14164,-3.25462 3.59585,-4.01199 0.80551,-0.41951 1.5829,-0.56449 3.09003,-0.57625 1.732679,-0.0135 2.23246,0.0961 3.580648,0.78529 3.652342,1.86709 4.582981,5.38889 2.26837,8.58412 -1.20933,1.66942 -2.875258,2.51947 -5.163578,2.63474 -1.176781,0.0593 -2.267661,-0.0414 -2.86356,-0.26439 z"
       id="path830-3-3"
       inkscape:connector-curvature="0" />
    <path
       style="fill:#6b58e7;fill-opacity:1;stroke:#1853ce;stroke-width:0.26649934;stroke-miterlimit:4;stroke-dasharray:none;stroke-opacity:1"
       d="m 107.07591,283.57176 c -3.55144,-1.32874 -5.38214,-4.23312 -4.50776,-7.15152 0.38935,-1.29954 2.14164,-3.25462 3.59585,-4.01199 0.80551,-0.41951 1.5829,-0.56449 3.09003,-0.57625 1.73268,-0.0135 2.23246,0.0961 3.58065,0.78529 3.65234,1.86709 4.58298,5.38889 2.26837,8.58412 -1.20933,1.66942 -2.87526,2.51947 -5.16358,2.63474 -1.17678,0.0593 -2.26766,-0.0414 -2.86356,-0.26439 z"
       id="path830-3-38"
       inkscape:connector-curvature="0" />
    <path
       style="fill:#6b58e7;fill-opacity:1;stroke:#1853ce;stroke-width:0.26649934;stroke-miterlimit:4;stroke-dasharray:none;stroke-opacity:1"
       d="m 139.80379,281.7092 c -3.55144,-1.32874 -5.38214,-4.23312 -4.50776,-7.15152 0.38935,-1.29954 2.14164,-3.25462 3.59585,-4.01199 0.80551,-0.41951 1.5829,-0.56449 3.09003,-0.57625 1.73268,-0.0135 2.23246,0.0961 3.58065,0.78529 3.65234,1.86709 4.58298,5.38889 2.26837,8.58412 -1.20933,1.66942 -2.87526,2.51947 -5.16358,2.63474 -1.17678,0.0593 -2.26766,-0.0414 -2.86356,-0.26439 z"
       id="path830-3-0"
       inkscape:connector-curvature="0" />
    <text
       xml:space="preserve"
       style="font-style:normal;font-weight:normal;font-size:10.58333302px;line-height:1.25;font-family:sans-serif;letter-spacing:0px;word-spacing:0px;fill:#000000;fill-opacity:1;stroke:none;stroke-width:0.26458332"
       x="162.30901"
       y="281.56735"
       id="text923"><tspan
         sodipodi:role="line"
         id="tspan921"
         x="162.30901"
         y="281.56735"
         style="stroke-width:0.26458332">...</tspan></text>
    <path
       style="fill:#6b58e7;fill-opacity:1;stroke:#1853ce;stroke-width:0.26649934;stroke-miterlimit:4;stroke-dasharray:none;stroke-opacity:1"
       d="m 193.01986,285.96649 c -3.55144,-1.32874 -5.38214,-4.23312 -4.50776,-7.15152 0.38935,-1.29954 2.14164,-3.25462 3.59585,-4.01199 0.80551,-0.41951 1.5829,-0.56449 3.09003,-0.57625 1.73268,-0.0135 2.23246,0.0961 3.58065,0.78529 3.65234,1.86709 4.58298,5.38889 2.26837,8.58412 -1.20933,1.66942 -2.87526,2.51947 -5.16358,2.63474 -1.17678,0.0593 -2.26766,-0.0414 -2.86356,-0.26439 z"
       id="path830-3-4"
       inkscape:connector-curvature="0" />
    <text
       xml:space="preserve"
       style="font-style:normal;font-weight:normal;font-size:10.58333302px;line-height:1.25;font-family:sans-serif;letter-spacing:0px;word-spacing:0px;fill:#000000;fill-opacity:1;stroke:none;stroke-width:0.26458332"
       x="11.707536"
       y="289.28366"
       id="text933"><tspan
         sodipodi:role="line"
         id="tspan931"
         x="11.707536"
         y="289.28366"
         style="stroke-width:0.26458332">$m_1$</tspan></text>
    <text
       xml:space="preserve"
       style="font-style:normal;font-weight:normal;font-size:10.58333302px;line-height:1.25;font-family:sans-serif;letter-spacing:0px;word-spacing:0px;fill:#000000;fill-opacity:1;stroke:none;stroke-width:0.26458332"
       x="57.473351"
       y="292.47662"
       id="text937"><tspan
         sodipodi:role="line"
         id="tspan935"
         x="57.473351"
         y="292.47662"
         style="stroke-width:0.26458332">$m_2$</tspan></text>
    <text
       xml:space="preserve"
       style="font-style:normal;font-weight:normal;font-size:10.58333302px;line-height:1.25;font-family:sans-serif;letter-spacing:0px;word-spacing:0px;fill:#000000;fill-opacity:1;stroke:none;stroke-width:0.26458332"
       x="96.321075"
       y="293.54095"
       id="text941"><tspan
         sodipodi:role="line"
         id="tspan939"
         x="96.321075"
         y="293.54095"
         style="stroke-width:0.26458332">$m_3$</tspan></text>
    <text
       xml:space="preserve"
       style="font-style:normal;font-weight:normal;font-size:10.58333302px;line-height:1.25;font-family:sans-serif;letter-spacing:0px;word-spacing:0px;fill:#000000;fill-opacity:1;stroke:none;stroke-width:0.26458332"
       x="135.96706"
       y="293.00879"
       id="text945"><tspan
         sodipodi:role="line"
         id="tspan943"
         x="135.96706"
         y="293.00879"
         style="stroke-width:0.26458332">$m_4$</tspan></text>
    <text
       xml:space="preserve"
       style="font-style:normal;font-weight:normal;font-size:10.58333302px;line-height:1.25;font-family:sans-serif;letter-spacing:0px;word-spacing:0px;fill:#000000;fill-opacity:1;stroke:none;stroke-width:0.26458332"
       x="195.30296"
       y="295.93567"
       id="text949"><tspan
         sodipodi:role="line"
         id="tspan947"
         x="195.30296"
         y="295.93567"
         style="stroke-width:0.26458332">$m_5$</tspan></text>
    <path
       style="fill:none;stroke:#000000;stroke-width:0.26458332px;stroke-linecap:butt;stroke-linejoin:miter;stroke-opacity:1"
       d="m 57.473352,206.79877 -23.68115,68.11656"
       id="path951"
       inkscape:connector-curvature="0" />
    <path
       style="fill:none;stroke:#000000;stroke-width:0.26458332px;stroke-linecap:butt;stroke-linejoin:miter;stroke-opacity:1"
       d="m 57.473352,206.79877 13.570095,68.9148"
       id="path953"
       inkscape:connector-curvature="0" />
    <path
       style="fill:none;stroke:#000000;stroke-width:0.26458332px;stroke-linecap:butt;stroke-linejoin:miter;stroke-opacity:1"
       d="M 57.473352,206.79877 109.6251,278.37438"
       id="path955"
       inkscape:connector-curvature="0" />
    <path
       style="fill:none;stroke:#000000;stroke-width:0.26458332px;stroke-linecap:butt;stroke-linejoin:miter;stroke-opacity:1"
       d="M 140.7565,275.71357 57.473352,206.79877 195.30296,279.97086"
       id="path957"
       inkscape:connector-curvature="0" />
    <path
       style="fill:none;stroke:#000000;stroke-width:0.26458332px;stroke-linecap:butt;stroke-linejoin:miter;stroke-opacity:1"
       d="M 85.411785,207.06485 33.792202,274.91533"
       id="path959"
       inkscape:connector-curvature="0" />
    <path
       style="fill:none;stroke:#000000;stroke-width:0.26458332px;stroke-linecap:butt;stroke-linejoin:miter;stroke-opacity:1"
       d="M 85.411785,207.06485 71.043447,275.71357"
       id="path961"
       inkscape:connector-curvature="0" />
    <path
       style="fill:none;stroke:#000000;stroke-width:0.26458332px;stroke-linecap:butt;stroke-linejoin:miter;stroke-opacity:1"
       d="M 85.411785,207.06485 109.6251,278.37438"
       id="path963"
       inkscape:connector-curvature="0" />
    <path
       style="fill:none;stroke:#000000;stroke-width:0.26458332px;stroke-linecap:butt;stroke-linejoin:miter;stroke-opacity:1"
       d="M 85.411785,207.06485 140.7565,275.71357"
       id="path965"
       inkscape:connector-curvature="0" />
    <path
       style="fill:none;stroke:#000000;stroke-width:0.26458332px;stroke-linecap:butt;stroke-linejoin:miter;stroke-opacity:1"
       d="M 85.411785,207.06485 195.30296,279.97086"
       id="path967"
       inkscape:connector-curvature="0" />
    <path
       style="fill:none;stroke:#000000;stroke-width:0.26458332px;stroke-linecap:butt;stroke-linejoin:miter;stroke-opacity:1"
       d="M 33.792202,274.91533 109.09294,207.59701 71.043447,275.71357"
       id="path969"
       inkscape:connector-curvature="0" />
    <path
       style="fill:none;stroke:#000000;stroke-width:0.26458332px;stroke-linecap:butt;stroke-linejoin:miter;stroke-opacity:1"
       d="m 109.09294,207.59701 0.53216,70.77737"
       id="path971"
       inkscape:connector-curvature="0" />
    <path
       style="fill:none;stroke:#000000;stroke-width:0.26458332px;stroke-linecap:butt;stroke-linejoin:miter;stroke-opacity:1"
       d="m 140.7565,275.71357 -31.66356,-68.11656 86.21002,72.37385"
       id="path973"
       inkscape:connector-curvature="0" />
    <path
       style="fill:none;stroke:#000000;stroke-width:0.26458332px;stroke-linecap:butt;stroke-linejoin:miter;stroke-opacity:1"
       d="M 156.18915,207.86309 33.792202,274.91533"
       id="path975"
       inkscape:connector-curvature="0" />
    <path
       style="fill:none;stroke:#000000;stroke-width:0.26458332px;stroke-linecap:butt;stroke-linejoin:miter;stroke-opacity:1"
       d="M 156.18915,207.86309 71.043447,275.71357"
       id="path977"
       inkscape:connector-curvature="0" />
    <path
       style="fill:none;stroke:#000000;stroke-width:0.26458332px;stroke-linecap:butt;stroke-linejoin:miter;stroke-opacity:1"
       d="M 156.18915,207.86309 109.6251,278.37438"
       id="path979"
       inkscape:connector-curvature="0" />
    <path
       style="fill:none;stroke:#000000;stroke-width:0.26458332px;stroke-linecap:butt;stroke-linejoin:miter;stroke-opacity:1"
       d="m 156.18915,207.86309 c 0,0 -15.43265,67.85048 -15.43265,67.85048"
       id="path981"
       inkscape:connector-curvature="0" />
    <path
       style="fill:none;stroke:#000000;stroke-width:0.26458332px;stroke-linecap:butt;stroke-linejoin:miter;stroke-opacity:1"
       d="m 156.18915,207.86309 39.11381,72.10777"
       id="path983"
       inkscape:connector-curvature="0" />
  </g>
</svg>
