<?xml version="1.0" encoding="UTF-8" standalone="no"?>
<!-- Created with Inkscape (http://www.inkscape.org/) -->

<svg
   xmlns:dc="http://purl.org/dc/elements/1.1/"
   xmlns:cc="http://creativecommons.org/ns#"
   xmlns:rdf="http://www.w3.org/1999/02/22-rdf-syntax-ns#"
   xmlns:svg="http://www.w3.org/2000/svg"
   xmlns="http://www.w3.org/2000/svg"
   xmlns:sodipodi="http://sodipodi.sourceforge.net/DTD/sodipodi-0.dtd"
   xmlns:inkscape="http://www.inkscape.org/namespaces/inkscape"
   width="240mm"
   height="120mm"
   viewBox="0 0 240 120"
   version="1.1"
   id="svg8"
   inkscape:version="0.92.3 (2405546, 2018-03-11)"
   sodipodi:docname="grafoestudiantes.svg">
  <defs
     id="defs2" />
  <sodipodi:namedview
     id="base"
     pagecolor="#ffffff"
     bordercolor="#666666"
     borderopacity="1.0"
     inkscape:pageopacity="0.0"
     inkscape:pageshadow="2"
     inkscape:zoom="1.406257"
     inkscape:cx="362.33068"
     inkscape:cy="182.54134"
     inkscape:document-units="mm"
     inkscape:current-layer="layer1"
     showgrid="false"
     showborder="true"
     width="200mm"
     showguides="true"
     inkscape:guide-bbox="true"
     inkscape:window-width="1920"
     inkscape:window-height="1031"
     inkscape:window-x="0"
     inkscape:window-y="0"
     inkscape:window-maximized="1">
    <inkscape:grid
       type="xygrid"
       id="grid815"
       units="mm"
       spacingx="10"
       spacingy="10"
       empspacing="4"
       dotted="false" />
  </sodipodi:namedview>
  <metadata
     id="metadata5">
    <rdf:RDF>
      <cc:Work
         rdf:about="">
        <dc:format>image/svg+xml</dc:format>
        <dc:type
           rdf:resource="http://purl.org/dc/dcmitype/StillImage" />
        <dc:title></dc:title>
      </cc:Work>
    </rdf:RDF>
  </metadata>
  <g
     inkscape:label="Layer 1"
     inkscape:groupmode="layer"
     id="layer1"
     transform="translate(0,-177)">
    <ellipse
       style="fill:#008080;fill-opacity:0.70720712;stroke:#1853ce;stroke-width:0.26499999;stroke-miterlimit:4;stroke-dasharray:none;stroke-opacity:1"
       id="path816"
       cx="69.979126"
       cy="199.61459"
       rx="3.991205"
       ry="3.4590442" />
    <ellipse
       style="fill:#008080;fill-opacity:0.70720712;stroke:#1853ce;stroke-width:0.26499999;stroke-miterlimit:4;stroke-dasharray:none;stroke-opacity:1"
       id="path816-3"
       cx="115.74494"
       cy="199.61459"
       rx="3.991205"
       ry="3.4590442" />
    <ellipse
       style="fill:#008080;fill-opacity:0.70720712;stroke:#1853ce;stroke-width:0.26499999;stroke-miterlimit:4;stroke-dasharray:none;stroke-opacity:1"
       id="path816-8"
       cx="157.78564"
       cy="209.1935"
       rx="3.991205"
       ry="3.4590442" />
    <ellipse
       style="fill:#008080;fill-opacity:0.70720712;stroke:#1853ce;stroke-width:0.26499999;stroke-miterlimit:4;stroke-dasharray:none;stroke-opacity:1"
       id="path816-33"
       cx="169.75925"
       cy="236.59976"
       rx="3.991205"
       ry="3.4590442" />
    <ellipse
       style="fill:#008080;fill-opacity:0.70720712;stroke:#1853ce;stroke-width:0.26499999;stroke-miterlimit:4;stroke-dasharray:none;stroke-opacity:1"
       id="path816-38"
       cx="167.63062"
       cy="269.59372"
       rx="3.991205"
       ry="3.4590442" />
    <ellipse
       style="fill:#008080;fill-opacity:0.70720712;stroke:#1853ce;stroke-width:0.26499999;stroke-miterlimit:4;stroke-dasharray:none;stroke-opacity:1"
       id="path816-0"
       cx="143.15121"
       cy="286.88895"
       rx="3.991205"
       ry="3.4590442" />
    <ellipse
       style="fill:#008080;fill-opacity:0.70720712;stroke:#1853ce;stroke-width:0.26499999;stroke-miterlimit:4;stroke-dasharray:none;stroke-opacity:1"
       id="path816-4"
       cx="108.29469"
       cy="290.34799"
       rx="3.991205"
       ry="3.4590442" />
    <ellipse
       style="fill:#008080;fill-opacity:0.70720712;stroke:#1853ce;stroke-width:0.26499999;stroke-miterlimit:4;stroke-dasharray:none;stroke-opacity:1"
       id="path816-7"
       cx="71.575607"
       cy="289.01758"
       rx="3.991205"
       ry="3.4590442" />
    <ellipse
       style="fill:#008080;fill-opacity:0.70720712;stroke:#1853ce;stroke-width:0.26499999;stroke-miterlimit:4;stroke-dasharray:none;stroke-opacity:1"
       id="path816-6"
       cx="44.967575"
       cy="266.13467"
       rx="3.991205"
       ry="3.4590442" />
    <ellipse
       style="fill:#008080;fill-opacity:0.70720712;stroke:#1853ce;stroke-width:0.26499999;stroke-miterlimit:4;stroke-dasharray:none;stroke-opacity:1"
       id="path816-89"
       cx="42.040691"
       cy="233.93896"
       rx="3.991205"
       ry="3.4590442" />
    <text
       xml:space="preserve"
       style="font-style:normal;font-weight:normal;font-size:10.58333302px;line-height:1.25;font-family:sans-serif;letter-spacing:0px;word-spacing:0px;fill:#000000;fill-opacity:1;stroke:none;stroke-width:0.26458332"
       x="63.061035"
       y="190.03571"
       id="text892"><tspan
         sodipodi:role="line"
         id="tspan890"
         x="63.061035"
         y="190.03571"
         style="stroke-width:0.26458332">a</tspan></text>
    <text
       xml:space="preserve"
       style="font-style:normal;font-weight:normal;font-size:10.58333302px;line-height:1.25;font-family:sans-serif;letter-spacing:0px;word-spacing:0px;fill:#000000;fill-opacity:1;stroke:none;stroke-width:0.26458332"
       x="113.08414"
       y="189.50354"
       id="text896"><tspan
         sodipodi:role="line"
         id="tspan894"
         x="113.08414"
         y="189.50354"
         style="stroke-width:0.26458332">b</tspan></text>
    <text
       xml:space="preserve"
       style="font-style:normal;font-weight:normal;font-size:10.58333302px;line-height:1.25;font-family:sans-serif;letter-spacing:0px;word-spacing:0px;fill:#000000;fill-opacity:1;stroke:none;stroke-width:0.26458332"
       x="160.97859"
       y="199.61459"
       id="text900"><tspan
         sodipodi:role="line"
         id="tspan898"
         x="160.97859"
         y="199.61459"
         style="stroke-width:0.26458332">c</tspan></text>
    <text
       xml:space="preserve"
       style="font-style:normal;font-weight:normal;font-size:10.58333302px;line-height:1.25;font-family:sans-serif;letter-spacing:0px;word-spacing:0px;fill:#000000;fill-opacity:1;stroke:none;stroke-width:0.26458332"
       x="173.48438"
       y="226.75479"
       id="text904"><tspan
         sodipodi:role="line"
         id="tspan902"
         x="173.48438"
         y="226.75479"
         style="stroke-width:0.26458332">d</tspan></text>
    <text
       xml:space="preserve"
       style="font-style:normal;font-weight:normal;font-size:10.58333302px;line-height:1.25;font-family:sans-serif;letter-spacing:0px;word-spacing:0px;fill:#000000;fill-opacity:1;stroke:none;stroke-width:0.26458332"
       x="173.75046"
       y="258.9505"
       id="text908"><tspan
         sodipodi:role="line"
         id="tspan906"
         x="173.75046"
         y="258.9505"
         style="stroke-width:0.26458332">e</tspan></text>
    <text
       xml:space="preserve"
       style="font-style:normal;font-weight:normal;font-size:10.58333302px;line-height:1.25;font-family:sans-serif;letter-spacing:0px;word-spacing:0px;fill:#000000;fill-opacity:1;stroke:none;stroke-width:0.26458332"
       x="153.52835"
       y="286.62286"
       id="text912"><tspan
         sodipodi:role="line"
         id="tspan910"
         x="153.52835"
         y="286.62286"
         style="stroke-width:0.26458332">f</tspan></text>
    <text
       xml:space="preserve"
       style="font-style:normal;font-weight:normal;font-size:10.58333302px;line-height:1.25;font-family:sans-serif;letter-spacing:0px;word-spacing:0px;fill:#000000;fill-opacity:1;stroke:none;stroke-width:0.26458332"
       x="117.07535"
       y="286.0907"
       id="text916"><tspan
         sodipodi:role="line"
         id="tspan914"
         x="117.07535"
         y="286.0907"
         style="stroke-width:0.26458332">g</tspan></text>
    <text
       xml:space="preserve"
       style="font-style:normal;font-weight:normal;font-size:10.58333302px;line-height:1.25;font-family:sans-serif;letter-spacing:0px;word-spacing:0px;fill:#000000;fill-opacity:1;stroke:none;stroke-width:0.26458332"
       x="82.750977"
       y="292.21054"
       id="text920"><tspan
         sodipodi:role="line"
         id="tspan918"
         x="82.750977"
         y="292.21054"
         style="stroke-width:0.26458332">h</tspan></text>
    <text
       xml:space="preserve"
       style="font-style:normal;font-weight:normal;font-size:10.58333302px;line-height:1.25;font-family:sans-serif;letter-spacing:0px;word-spacing:0px;fill:#000000;fill-opacity:1;stroke:none;stroke-width:0.26458332"
       x="49.490944"
       y="280.7691"
       id="text924"><tspan
         sodipodi:role="line"
         id="tspan922"
         x="49.490944"
         y="280.7691"
         style="stroke-width:0.26458332">i</tspan></text>
    <text
       xml:space="preserve"
       style="font-style:normal;font-weight:normal;font-size:10.58333302px;line-height:1.25;font-family:sans-serif;letter-spacing:0px;word-spacing:0px;fill:#000000;fill-opacity:1;stroke:none;stroke-width:0.26458332"
       x="37.517326"
       y="242.98569"
       id="text928"><tspan
         sodipodi:role="line"
         id="tspan926"
         x="37.517326"
         y="242.98569"
         style="stroke-width:0.26458332">j</tspan></text>
    <path
       style="fill:none;stroke:#000000;stroke-width:0.26458332px;stroke-linecap:butt;stroke-linejoin:miter;stroke-opacity:1"
       d="M 115.21278,199.34852 H 68.648725 l 98.981885,70.77737"
       id="path930"
       inkscape:connector-curvature="0" />
    <path
       style="fill:none;stroke:#000000;stroke-width:0.26458332px;stroke-linecap:butt;stroke-linejoin:miter;stroke-opacity:1"
       d="M 68.648725,199.34852 41.24245,235.00328"
       id="path932"
       inkscape:connector-curvature="0" />
    <path
       style="fill:none;stroke:#000000;stroke-width:0.26458332px;stroke-linecap:butt;stroke-linejoin:miter;stroke-opacity:1"
       d="m 169.49317,236.33368 -54.28039,-36.98516 -6.91808,91.79771"
       id="path934"
       inkscape:connector-curvature="0" />
    <path
       style="fill:none;stroke:#000000;stroke-width:0.26458332px;stroke-linecap:butt;stroke-linejoin:miter;stroke-opacity:1"
       d="M 71.84169,289.54975 156.72131,209.45957 41.24245,235.00328"
       id="path936"
       inkscape:connector-curvature="0" />
    <path
       style="fill:none;stroke:#000000;stroke-width:0.26458332px;stroke-linecap:butt;stroke-linejoin:miter;stroke-opacity:1"
       d="m 169.49317,236.33368 -26.60803,50.55526"
       id="path938"
       inkscape:connector-curvature="0" />
    <path
       style="fill:none;stroke:#000000;stroke-width:0.26458332px;stroke-linecap:butt;stroke-linejoin:miter;stroke-opacity:1"
       d="M 167.63061,270.12589 44.967575,266.40076"
       id="path940"
       inkscape:connector-curvature="0" />
    <path
       style="fill:none;stroke:#000000;stroke-width:0.26458332px;stroke-linecap:butt;stroke-linejoin:miter;stroke-opacity:1"
       d="M 142.88514,286.88894 41.24245,235.00328"
       id="path942"
       inkscape:connector-curvature="0" />
    <path
       style="fill:none;stroke:#000000;stroke-width:0.26458332px;stroke-linecap:butt;stroke-linejoin:miter;stroke-opacity:1"
       d="M 71.84169,289.54975 44.967575,266.40076 41.24245,235.00328"
       id="path944"
       inkscape:connector-curvature="0" />
    <path
       style="fill:#ff0000;fill-opacity:0.70720712;stroke:#1853ce;stroke-width:1.00724161;stroke-miterlimit:4;stroke-dasharray:none;stroke-opacity:1"
       d=""
       id="path851"
       inkscape:connector-curvature="0"
       transform="matrix(0.26458333,0,0,0.26458333,0,177)" />
    <path
       style="fill:#ff0000;fill-opacity:0.70720712;stroke:#1853ce;stroke-width:1.00724161;stroke-miterlimit:4;stroke-dasharray:none;stroke-opacity:1"
       d="m 251.29772,89.822639 c -1.26337,-3.292287 -0.55078,-8.270421 1.56974,-10.966232 6.10206,-7.757508 19.39439,-7.015522 24.31093,1.357052 l 1.85247,3.154653 -10.40057,0.02705 -10.40056,0.02705 -2.4649,3.995582 c -2.6924,4.364375 -3.54006,4.820706 -4.46711,2.404845 z"
       id="path853"
       inkscape:connector-curvature="0"
       transform="matrix(0.26458333,0,0,0.26458333,0,177)" />
    <path
       style="fill:#ff0000;fill-opacity:0.70720712;stroke:#1853ce;stroke-width:1.00724161;stroke-miterlimit:4;stroke-dasharray:none;stroke-opacity:1"
       d="m 263.02574,97.756069 c 0.97848,-0.254978 2.33611,-0.238209 3.01698,0.03726 0.68086,0.275473 -0.11971,0.484091 -1.77904,0.463596 -1.65934,-0.02049 -2.21641,-0.245882 -1.23794,-0.50086 z"
       id="path855"
       inkscape:connector-curvature="0"
       transform="matrix(0.26458333,0,0,0.26458333,0,177)" />
    <path
       style="fill:#ff0000;fill-opacity:0.70720712;stroke:#1853ce;stroke-width:1.00724161;stroke-miterlimit:4;stroke-dasharray:none;stroke-opacity:1"
       d=""
       id="path857"
       inkscape:connector-curvature="0"
       transform="matrix(0.26458333,0,0,0.26458333,0,177)" />
    <path
       style="fill:#ff0000;fill-opacity:0.70720712;stroke:#1853ce;stroke-width:0.5036208;stroke-miterlimit:4;stroke-dasharray:none;stroke-opacity:1"
       d="m 268.80445,90.310263 c -3.04211,-2.191507 -5.74607,-4.196795 -6.0088,-4.456196 -0.29765,-0.293875 2.68256,-0.471639 7.90698,-0.471639 h 8.38468 l -0.31143,1.634194 c -0.42701,2.240685 -1.84333,4.941293 -3.26001,6.216097 l -1.1803,1.0621 z"
       id="path859"
       inkscape:connector-curvature="0"
       transform="matrix(0.26458333,0,0,0.26458333,0,177)" />
    <path
       style="fill:#ff0000;fill-opacity:0.70720712;stroke:#1853ce;stroke-width:0.5036208;stroke-miterlimit:4;stroke-dasharray:none;stroke-opacity:1"
       d="m 258.72434,96.741913 c -1.64283,-0.588351 -5.25617,-2.739605 -5.25617,-3.129344 0,-0.129763 1.39049,-2.029785 3.08998,-4.222273 l 3.08997,-3.986342 2.56685,1.853357 c 8.2866,5.983214 10.1525,7.34607 10.54418,7.70149 0.2392,0.217045 -0.32648,0.794288 -1.25707,1.282764 -2.00481,1.052348 -10.3265,1.378208 -12.77774,0.500348 z"
       id="path861"
       inkscape:connector-curvature="0"
       transform="matrix(0.26458333,0,0,0.26458333,0,177)" />
    <path
       style="fill:#ffff00;fill-opacity:0.70720712;stroke:#1853ce;stroke-width:0.7122274;stroke-miterlimit:4;stroke-dasharray:none;stroke-opacity:1"
       d="m 442.40787,88.215157 -6.74905,-4.518924 h -6.22867 c -3.42576,0 -6.22866,-0.196429 -6.22866,-0.43651 0,-0.240081 0.71656,-1.711452 1.59235,-3.269714 2.40919,-4.286581 6.86174,-6.604836 12.68557,-6.604836 3.96264,0 5.20163,0.326213 8.10257,2.133323 4.48494,2.793849 6.23559,5.983444 5.88189,10.716537 -0.14819,1.983004 -0.72788,4.256518 -1.28819,5.052255 -0.99398,1.4116 -1.18294,1.336868 -7.76781,-3.072131 z"
       id="path863"
       inkscape:connector-curvature="0"
       transform="matrix(0.26458333,0,0,0.26458333,0,177)" />
    <path
       style="fill:#ffff00;fill-opacity:0.70720712;stroke:#1853ce;stroke-width:0.7122274;stroke-miterlimit:4;stroke-dasharray:none;stroke-opacity:1"
       d="m 429.32405,95.525497 c -3.02201,-1.829286 -6.11316,-6.278432 -6.11892,-8.807057 -0.003,-1.528498 0.25499,-1.599992 5.78427,-1.599992 h 5.78791 l -0.44842,3.733315 c -0.24663,2.053323 -0.45121,4.773309 -0.45461,6.044414 -0.007,2.771572 -0.82451,2.884581 -4.55023,0.62932 z"
       id="path865"
       inkscape:connector-curvature="0"
       transform="matrix(0.26458333,0,0,0.26458333,0,177)" />
    <path
       style="fill:#ffff00;fill-opacity:0.70720712;stroke:#1853ce;stroke-width:0.7122274;stroke-miterlimit:4;stroke-dasharray:none;stroke-opacity:1"
       d="m 435.54457,93.547426 c 0.25127,-2.404028 0.45686,-5.139122 0.45686,-6.077987 0,-1.613341 0.32969,-1.482164 6.0071,2.390119 l 6.0071,4.097148 -1.91823,1.273779 c -2.30328,1.529464 -6.13615,2.678503 -8.95284,2.683933 l -2.05684,0.004 z"
       id="path867"
       inkscape:connector-curvature="0"
       transform="matrix(0.26458333,0,0,0.26458333,0,177)" />
    <path
       style="fill:#800000;fill-opacity:0.70720712;stroke:#1853ce;stroke-width:0.7122274;stroke-miterlimit:4;stroke-dasharray:none;stroke-opacity:1"
       d="m 592.44049,133.56009 c -2.75606,-0.89964 -6.39537,-2.90527 -6.39537,-3.5245 0,-0.30647 1.75999,-2.07669 3.91109,-3.93381 2.1511,-1.85713 3.91109,-3.64348 3.91109,-3.96967 0,-0.32619 -2.58149,-0.0176 -5.73665,0.68569 -6.68176,1.48945 -7.07831,1.2116 -5.6339,-3.94735 1.52379,-5.44242 7.49846,-9.56641 13.85943,-9.56641 8.72226,0 16.0793,7.8204 13.97245,14.85244 -1.09944,3.66961 -3.22272,6.22015 -6.62167,7.95417 -3.18715,1.62596 -8.59452,2.32162 -11.26647,1.44944 z"
       id="path869"
       inkscape:connector-curvature="0"
       transform="matrix(0.26458333,0,0,0.26458333,0,177)" />
    <path
       style="fill:#800000;fill-opacity:0.70720712;stroke:#1853ce;stroke-width:0.7122274;stroke-miterlimit:4;stroke-dasharray:none;stroke-opacity:1"
       d=""
       id="path871"
       inkscape:connector-curvature="0"
       transform="matrix(0.26458333,0,0,0.26458333,0,177)" />
    <path
       style="fill:#800000;fill-opacity:0.70720712;stroke:#1853ce;stroke-width:0.7122274;stroke-miterlimit:4;stroke-dasharray:none;stroke-opacity:1"
       d=""
       id="path873"
       inkscape:connector-curvature="0"
       transform="matrix(0.26458333,0,0,0.26458333,0,177)" />
    <path
       style="fill:#800000;fill-opacity:0.70720712;stroke:#1853ce;stroke-width:0.7122274;stroke-miterlimit:4;stroke-dasharray:none;stroke-opacity:1"
       d=""
       id="path875"
       inkscape:connector-curvature="0"
       transform="matrix(0.26458333,0,0,0.26458333,0,177)" />
    <path
       style="fill:#ff0000;fill-opacity:0.70720712;stroke:#1853ce;stroke-width:0.7122274;stroke-miterlimit:4;stroke-dasharray:none;stroke-opacity:1"
       d=""
       id="path877"
       inkscape:connector-curvature="0"
       transform="matrix(0.26458333,0,0,0.26458333,0,177)" />
    <path
       style="fill:#ff0000;fill-opacity:0.70720712;stroke:#1853ce;stroke-width:0.7122274;stroke-miterlimit:4;stroke-dasharray:none;stroke-opacity:1"
       d="m 590.3379,132.04444 c -1.74562,-0.81475 -3.30579,-1.6133 -3.46705,-1.77456 -0.16126,-0.16126 1.52364,-1.95368 3.74421,-3.98316 2.31979,-2.12016 3.7716,-3.95577 3.41261,-4.31476 -0.359,-0.35899 -2.78541,-0.2543 -5.7035,0.2461 -2.79329,0.479 -5.30005,0.64956 -5.57058,0.37903 -0.71977,-0.71978 0.93009,-5.70811 2.58289,-7.8093 3.67435,-4.67118 12.1105,-6.15007 17.84115,-3.12762 6.01685,3.1734 8.26316,8.89298 5.62939,14.33363 -2.98809,6.17257 -11.93086,9.1023 -18.46912,6.05064 z"
       id="path879"
       inkscape:connector-curvature="0"
       transform="matrix(0.26458333,0,0,0.26458333,0,177)" />
    <path
       style="fill:#ff0000;fill-opacity:0.70720712;stroke:#1853ce;stroke-width:0.7122274;stroke-miterlimit:4;stroke-dasharray:none;stroke-opacity:1"
       d="m 262.63785,82.458513 c 2.62287,-0.136432 7.10285,-0.13734 9.9555,-0.002 2.85266,0.135323 0.70667,0.246948 -4.76886,0.248058 -5.47553,0.0011 -7.80952,-0.109609 -5.18664,-0.24604 z"
       id="path881"
       inkscape:connector-curvature="0"
       transform="matrix(0.26458333,0,0,0.26458333,0,177)" />
    <path
       style="fill:#ff0000;fill-opacity:0.70720712;stroke:#1853ce;stroke-width:0.7122274;stroke-miterlimit:4;stroke-dasharray:none;stroke-opacity:1"
       d="m 636.32838,236.79997 c -1.12524,-0.29238 -0.91407,-1.00344 1.8298,-6.16138 1.70601,-3.20697 2.98037,-6.19528 2.8319,-6.64069 -0.14847,-0.44541 -2.33187,-2.15323 -4.85201,-3.79516 -2.52014,-1.64194 -4.58206,-3.2392 -4.58206,-3.54948 0,-1.28411 6.27069,-3.53545 9.8473,-3.53545 8.27086,0 14.33035,5.11168 14.33035,12.08883 0,4.69827 -2.57003,8.393 -7.60909,10.93898 -2.15482,1.08873 -8.72238,1.45303 -11.79619,0.65435 z"
       id="path883"
       inkscape:connector-curvature="0"
       transform="matrix(0.26458333,0,0,0.26458333,0,177)" />
    <path
       style="fill:#ffff00;fill-opacity:0.70720712;stroke:#1853ce;stroke-width:0.7122274;stroke-miterlimit:4;stroke-dasharray:none;stroke-opacity:1"
       d="m 630.24253,232.68847 c -3.29125,-3.74852 -3.84521,-9.92937 -1.20248,-13.41669 0.9503,-1.25401 1.14787,-1.20942 4.422,0.99801 6.393,4.31018 6.1788,3.67138 3.22964,9.63153 -1.43172,2.89345 -2.9798,5.26082 -3.44019,5.26082 -0.46038,0 -1.81442,-1.11315 -3.00897,-2.47367 z"
       id="path885"
       inkscape:connector-curvature="0"
       transform="matrix(0.26458333,0,0,0.26458333,0,177)" />
    <path
       style="fill:#ffff00;fill-opacity:0.70720712;stroke:#1853ce;stroke-width:0.7122274;stroke-miterlimit:4;stroke-dasharray:none;stroke-opacity:1"
       d="m 628.62985,361.46934 c -3.77612,-1.34944 -6.67937,-3.64133 -7.96175,-6.28517 l -1.13195,-2.33373 7.12737,-0.20321 c 5.20267,-0.14834 7.04983,-0.43638 6.84025,-1.06666 -0.15791,-0.4749 -2.66075,-2.56628 -5.56186,-4.64751 -2.90111,-2.08123 -5.27475,-4.16122 -5.27475,-4.6222 0,-0.46097 1.75999,-1.74368 3.91109,-2.85046 3.30915,-1.7026 4.52265,-1.96084 7.88466,-1.67788 11.76316,0.99006 17.30572,11.78508 10.12933,19.72848 -3.87178,4.2856 -10.46882,5.92153 -15.96239,3.95834 z"
       id="path887"
       inkscape:connector-curvature="0"
       transform="matrix(0.26458333,0,0,0.26458333,0,177)" />
    <path
       style="fill:#ffff00;fill-opacity:0.70720712;stroke:#1853ce;stroke-width:0.7122274;stroke-miterlimit:4;stroke-dasharray:none;stroke-opacity:1"
       d="m 626.40048,351.99304 c 0.87999,-0.1695 2.31998,-0.1695 3.19998,0 0.87999,0.16949 0.16,0.30817 -1.59999,0.30817 -1.75999,0 -2.47999,-0.13868 -1.59999,-0.30817 z"
       id="path889"
       inkscape:connector-curvature="0"
       transform="matrix(0.26458333,0,0,0.26458333,0,177)" />
    <path
       style="fill:#ffff00;fill-opacity:0.70720712;stroke:#1853ce;stroke-width:0.7122274;stroke-miterlimit:4;stroke-dasharray:none;stroke-opacity:1"
       d=""
       id="path891"
       inkscape:connector-curvature="0"
       transform="matrix(0.26458333,0,0,0.26458333,0,177)" />
    <path
       style="fill:#ffff00;fill-opacity:0.70720712;stroke:#1853ce;stroke-width:0.7122274;stroke-miterlimit:4;stroke-dasharray:none;stroke-opacity:1"
       d="m 619.46718,348.8926 c 0,-1.19904 0.33855,-2.81266 0.75234,-3.58583 0.72093,-1.34707 0.90649,-1.29561 4.44442,1.23243 6.45655,4.61357 6.45144,4.53347 0.28892,4.53347 h -5.48568 z"
       id="path893"
       inkscape:connector-curvature="0"
       transform="matrix(0.26458333,0,0,0.26458333,0,177)" />
    <path
       style="fill:#ff0000;fill-opacity:0.70720712;stroke:#1853ce;stroke-width:0.7122274;stroke-miterlimit:4;stroke-dasharray:none;stroke-opacity:1"
       d="m 586.04512,130.02844 c 0,-0.7052 2.36878,-2.95465 3.1114,-2.95465 0.67172,0 -1.88516,3.50416 -2.57807,3.5332 -0.29333,0.0123 -0.53333,-0.24806 -0.53333,-0.57855 z"
       id="path895"
       inkscape:connector-curvature="0"
       transform="matrix(0.26458333,0,0,0.26458333,0,177)" />
    <path
       style="fill:#ff0000;fill-opacity:0.70720712;stroke:#1853ce;stroke-width:0.7122274;stroke-miterlimit:4;stroke-dasharray:none;stroke-opacity:1"
       d=""
       id="path897"
       inkscape:connector-curvature="0"
       transform="matrix(0.26458333,0,0,0.26458333,0,177)" />
    <path
       style="fill:#ff0000;fill-opacity:0.70720712;stroke:#1853ce;stroke-width:0.7122274;stroke-miterlimit:4;stroke-dasharray:none;stroke-opacity:1"
       d="m 583.60824,127.30842 c -0.45432,-1.18394 0.62176,-2.33636 2.20094,-2.35706 0.4569,-0.006 1.4169,-0.22025 2.13333,-0.47615 0.92492,-0.33036 0.69703,0.18509 -0.78599,1.77777 -2.38449,2.56081 -2.91057,2.71729 -3.54828,1.05544 z"
       id="path899"
       inkscape:connector-curvature="0"
       transform="matrix(0.26458333,0,0,0.26458333,0,177)" />
    <path
       style="fill:#ff0000;fill-opacity:0.70720712;stroke:#1853ce;stroke-width:0.7122274;stroke-miterlimit:4;stroke-dasharray:none;stroke-opacity:1"
       d=""
       id="path901"
       inkscape:connector-curvature="0"
       transform="matrix(0.26458333,0,0,0.26458333,0,177)" />
    <path
       style="fill:#ff0000;fill-opacity:0.70720712;stroke:#1853ce;stroke-width:0.7122274;stroke-miterlimit:4;stroke-dasharray:none;stroke-opacity:1"
       d="m 631.28464,232.56352 c -1.02487,-1.02488 -2.22448,-3.06857 -2.6658,-4.54155 -0.93377,-3.11667 -0.27901,-7.69507 1.18058,-8.25517 1.12871,-0.43313 5.07632,1.79265 7.05269,3.97651 1.15497,1.27624 1.18847,1.67316 0.317,3.75628 -0.53595,1.28108 -0.97815,2.49707 -0.98268,2.70218 -0.005,0.20512 -0.69001,1.23969 -1.5233,2.29905 l -1.51508,1.92611 z"
       id="path903"
       inkscape:connector-curvature="0"
       transform="matrix(0.26458333,0,0,0.26458333,0,177)" />
    <path
       style="fill:#ffff00;fill-opacity:0.70720712;stroke:#1853ce;stroke-width:0.7122274;stroke-miterlimit:4;stroke-dasharray:none;stroke-opacity:1"
       d="m 537.23342,427.19394 c -6.05708,-1.4444 -10.21023,-6.16856 -10.21023,-11.61403 0,-5.71789 0.15506,-5.78076 6.45052,-2.61546 3.08371,1.55045 6.02977,2.81901 6.54681,2.81901 0.51704,0 2.1882,-2.55998 3.7137,-5.68886 1.5255,-3.12887 3.18864,-5.68886 3.69587,-5.68886 1.76044,0 6.59789,5.11055 7.41316,7.83169 1.27403,4.25233 0.25921,7.71485 -3.24744,11.08019 -4.06123,3.89756 -8.85161,5.19045 -14.36239,3.87632 z"
       id="path905"
       inkscape:connector-curvature="0"
       transform="matrix(0.26458333,0,0,0.26458333,0,177)" />
    <path
       style="fill:#ffff00;fill-opacity:0.70720712;stroke:#1853ce;stroke-width:0.7122274;stroke-miterlimit:4;stroke-dasharray:none;stroke-opacity:1"
       d="m 534.30563,411.67156 c -2.83906,-1.43283 -5.05373,-2.9338 -4.92148,-3.33549 0.13225,-0.40169 1.52566,-1.6362 3.09647,-2.74336 3.11612,-2.19634 10.95809,-3.52683 11.89094,-2.01744 0.38475,0.62254 -4.14151,10.89232 -4.73515,10.74371 -0.0929,-0.0233 -2.49171,-1.21458 -5.33078,-2.64742 z"
       id="path907"
       inkscape:connector-curvature="0"
       transform="matrix(0.26458333,0,0,0.26458333,0,177)" />
    <path
       style="fill:#ff0000;fill-opacity:0.70720712;stroke:#1853ce;stroke-width:0.7122274;stroke-miterlimit:4;stroke-dasharray:none;stroke-opacity:1"
       d="m 402.92883,439.34602 c -6.30164,-2.86277 -9.40454,-9.27978 -7.12512,-14.73521 1.97194,-4.7195 5.51743,-7.37287 11.23972,-8.41156 l 2.68628,-0.4876 -0.40843,5.90254 c -0.22463,3.2464 -0.54547,6.78254 -0.71296,7.85809 -0.21601,1.38711 3.6e-4,1.95555 0.74435,1.95555 0.73707,0 1.05039,-0.79274 1.05394,-2.66665 0.003,-1.46666 0.20905,-4.82665 0.45838,-7.46663 0.51774,-5.48194 1.12559,-5.83212 5.89764,-3.3976 7.26973,3.70873 9.01085,12.24094 3.68643,18.06497 -4.1076,4.49303 -11.80603,5.98001 -17.52023,3.3841 z"
       id="path909"
       inkscape:connector-curvature="0"
       transform="matrix(0.26458333,0,0,0.26458333,0,177)" />
    <path
       style="fill:#ffff00;fill-opacity:0.70720712;stroke:#1853ce;stroke-width:0.7122274;stroke-miterlimit:4;stroke-dasharray:none;stroke-opacity:1"
       d="m 264.26895,434.40356 c -3.81869,-1.81235 -6.58635,-4.73496 -7.55936,-7.98258 -0.94431,-3.15183 -0.35674,-7.10305 1.35987,-9.14462 1.20791,-1.43656 1.28614,-1.39712 6.9106,3.4835 3.12887,2.71508 6.08286,4.94609 6.56441,4.95781 0.48156,0.0117 3.09427,-2.07172 5.80603,-4.62986 l 4.93048,-4.65116 1.12727,1.6094 c 1.60669,2.29388 1.46233,8.20134 -0.26985,11.04222 -3.44905,5.65667 -12.67455,8.25538 -18.86945,5.31529 z"
       id="path911"
       inkscape:connector-curvature="0"
       transform="matrix(0.26458333,0,0,0.26458333,0,177)" />
    <path
       style="fill:#ffff00;fill-opacity:0.70720712;stroke:#1853ce;stroke-width:0.7122274;stroke-miterlimit:4;stroke-dasharray:none;stroke-opacity:1"
       d="m 265.86932,419.42488 -5.5107,-4.70253 1.59961,-1.21849 c 2.15753,-1.64347 7.96852,-2.82931 11.1206,-2.26936 2.71544,0.48238 7.90115,3.03913 7.90115,3.89557 0,0.27881 -2.15999,2.41727 -4.79998,4.75214 l -4.79997,4.24521 z"
       id="path913"
       inkscape:connector-curvature="0"
       transform="matrix(0.26458333,0,0,0.26458333,0,177)" />
    <path
       style="fill:#008080;fill-opacity:0.70720712;stroke:#1853ce;stroke-width:0.7122274;stroke-miterlimit:4;stroke-dasharray:none;stroke-opacity:1"
       d="m 151.89477,225.92133 c -2.72826,-1.3505 -2.85078,-1.55214 -2.59196,-4.26608 0.26391,-2.76734 0.20907,-2.84858 -1.92281,-2.84858 -1.76817,0 -2.28429,-0.35786 -2.65683,-1.84219 -1.07973,-4.30199 2.34383,-10.27769 7.13489,-12.45368 3.89622,-1.76957 13.92249,-1.74251 13.92249,0.0376 0,0.28 -2.41373,3.62164 -5.36384,7.42587 l -5.36385,6.91677 0.47795,4.22448 c 0.26287,2.32346 0.19661,4.22422 -0.14724,4.22391 -0.34385,-3.1e-4 -1.91381,-0.63844 -3.4888,-1.41807 z"
       id="path915"
       inkscape:connector-curvature="0"
       transform="matrix(0.26458333,0,0,0.26458333,0,177)" />
    <path
       style="fill:#008080;fill-opacity:0.70720712;stroke:#1853ce;stroke-width:0.7122274;stroke-miterlimit:4;stroke-dasharray:none;stroke-opacity:1"
       d="m 159.12379,216.49557 c 0.47036,-0.77679 6.82254,-9.16983 8.09503,-10.69586 0.74296,-0.891 4.84469,3.74433 5.35029,6.04631 0.25182,1.14652 0.28342,2.25903 0.0702,2.47224 -0.49313,0.49313 -11.05507,3.00958 -12.76737,3.04191 -0.84512,0.0159 -1.10177,-0.28063 -0.74816,-0.8646 z"
       id="path917"
       inkscape:connector-curvature="0"
       transform="matrix(0.26458333,0,0,0.26458333,0,177)" />
    <path
       style="fill:#008080;fill-opacity:0.70720712;stroke:#1853ce;stroke-width:0.7122274;stroke-miterlimit:4;stroke-dasharray:none;stroke-opacity:1"
       d="m 162.93612,222.04859 -4.62219,-2.37793 2.84443,-0.73156 c 6.18136,-1.58977 11.05118,-2.47377 11.44702,-2.07793 0.96495,0.96494 -3.09631,7.70852 -4.57694,7.59986 -0.25856,-0.019 -2.55011,-1.10458 -5.09232,-2.41244 z"
       id="path919"
       inkscape:connector-curvature="0"
       transform="matrix(0.26458333,0,0,0.26458333,0,177)" />
    <path
       style="fill:#008080;fill-opacity:0.70720712;stroke:#1853ce;stroke-width:0.7122274;stroke-miterlimit:4;stroke-dasharray:none;stroke-opacity:1"
       d=""
       id="path921"
       inkscape:connector-curvature="0"
       transform="matrix(0.26458333,0,0,0.26458333,0,177)" />
    <path
       style="fill:#008080;fill-opacity:0.70720712;stroke:#1853ce;stroke-width:0.7122274;stroke-miterlimit:4;stroke-dasharray:none;stroke-opacity:1"
       d="m 157.72134,226.86589 c -0.26074,-0.26074 -0.47408,-1.69775 -0.47408,-3.19335 v -2.71927 l 4.67232,2.30402 4.67232,2.30403 -2.00567,0.85725 c -2.2002,0.94039 -6.11662,1.19559 -6.86489,0.44732 z"
       id="path923"
       inkscape:connector-curvature="0"
       transform="matrix(0.26458333,0,0,0.26458333,0,177)" />
    <path
       style="fill:#ff0000;fill-opacity:0.70720712;stroke:#1853ce;stroke-width:0.7122274;stroke-miterlimit:4;stroke-dasharray:none;stroke-opacity:1"
       d="m 163.29168,347.75775 c -10.29735,-5.42861 -10.01066,-17.49538 0.52019,-21.89545 1.44876,-0.60533 2.91424,-1.1006 3.25662,-1.1006 0.34238,0 0.9414,2.9945 1.33114,6.65445 0.77553,7.28264 0.29713,6.51603 8.40309,13.46584 l 2.13332,1.82905 -2.64381,1.11415 c -3.38765,1.42763 -10.23196,1.39212 -13.00055,-0.0674 z"
       id="path925"
       inkscape:connector-curvature="0"
       transform="matrix(0.26458333,0,0,0.26458333,0,177)" />
    <path
       style="fill:#ff0000;fill-opacity:0.70720712;stroke:#1853ce;stroke-width:0.7122274;stroke-miterlimit:4;stroke-dasharray:none;stroke-opacity:1"
       d="m 172.40529,337.06594 c -1.66407,-0.32362 -1.97109,-1.23521 -2.7669,-8.21538 l -0.46617,-4.08886 2.39304,0.0156 c 5.65591,0.0369 11.61439,4.92257 12.47556,10.22934 l 0.41462,2.55498 -5.24858,-0.0968 c -2.88671,-0.0533 -5.94742,-0.23275 -6.80157,-0.39885 z"
       id="path927"
       inkscape:connector-curvature="0"
       transform="matrix(0.26458333,0,0,0.26458333,0,177)" />
    <path
       style="fill:#ff0000;fill-opacity:0.70720712;stroke:#1853ce;stroke-width:0.7122274;stroke-miterlimit:4;stroke-dasharray:none;stroke-opacity:1"
       d="m 176.09161,342.17113 -3.55553,-3.15803 3.37776,-0.0146 c 2.52188,-0.0109 3.37776,-0.2849 3.37776,-1.08129 0,-0.67026 0.67626,-1.06666 1.81973,-1.06666 1.04059,0 1.63024,0.30663 1.37715,0.71613 -0.24343,0.39388 0.0394,0.9011 0.62854,1.12716 0.84795,0.3254 0.92111,0.8056 0.35113,2.30478 -0.74368,1.95601 -2.6539,4.40594 -3.39788,4.3579 -0.23271,-0.015 -2.02311,-1.44844 -3.97866,-3.18536 z"
       id="path929"
       inkscape:connector-curvature="0"
       transform="matrix(0.26458333,0,0,0.26458333,0,177)" />
    <ellipse
       style="fill:#ff0000;fill-opacity:0.70720712;stroke:#1853ce;stroke-width:0.26499999;stroke-miterlimit:4;stroke-dasharray:none;stroke-opacity:1"
       id="path931"
       cx="6.3029313"
       cy="196.62346"
       rx="3.4807234"
       ry="3.1044288" />
    <text
       xml:space="preserve"
       style="font-style:normal;font-weight:normal;font-size:10.58333302px;line-height:1.25;font-family:sans-serif;letter-spacing:0px;word-spacing:0px;fill:#000000;fill-opacity:1;stroke:none;stroke-width:0.26458332"
       x="12.605863"
       y="198.03456"
       id="text935"><tspan
         sodipodi:role="line"
         id="tspan933"
         x="12.605863"
         y="198.03456"
         style="stroke-width:0.26458332">ruta1</tspan></text>
    <text
       xml:space="preserve"
       style="font-style:normal;font-weight:normal;font-size:10.58333302px;line-height:1.25;font-family:sans-serif;letter-spacing:0px;word-spacing:0px;fill:#000000;fill-opacity:1;stroke:none;stroke-width:0.26458332"
       x="5.0799742"
       y="218.91891"
       id="text939"><tspan
         sodipodi:role="line"
         id="tspan937"
         x="5.0799742"
         y="228.28268"
         style="stroke-width:0.26458332" /></text>
    <ellipse
       style="fill:#ff0000;fill-opacity:0.70720712;stroke:#1853ce;stroke-width:0.26499999;stroke-miterlimit:4;stroke-dasharray:none;stroke-opacity:1"
       id="path931-3"
       cx="6.0207105"
       cy="209.32339"
       rx="3.4807234"
       ry="3.1044288" />
    <ellipse
       style="fill:#ff0000;fill-opacity:0.70720712;stroke:#1853ce;stroke-width:0.26499999;stroke-miterlimit:4;stroke-dasharray:none;stroke-opacity:1"
       id="path931-33"
       cx="6.5851521"
       cy="223.81073"
       rx="3.4807234"
       ry="3.1044288" />
    <text
       xml:space="preserve"
       style="font-style:normal;font-weight:normal;font-size:10.58333302px;line-height:1.25;font-family:sans-serif;letter-spacing:0px;word-spacing:0px;fill:#000000;fill-opacity:1;stroke:none;stroke-width:0.26458332"
       x="12.794009"
       y="214.02708"
       id="text964"><tspan
         sodipodi:role="line"
         id="tspan962"
         x="12.794009"
         y="214.02708"
         style="stroke-width:0.26458332">ruta2</tspan></text>
    <text
       xml:space="preserve"
       style="font-style:normal;font-weight:normal;font-size:10.58333302px;line-height:1.25;font-family:sans-serif;letter-spacing:0px;word-spacing:0px;fill:#000000;fill-opacity:1;stroke:none;stroke-width:0.26458332"
       x="12.605863"
       y="228.89072"
       id="text968"><tspan
         sodipodi:role="line"
         id="tspan966"
         x="12.605863"
         y="228.89072"
         style="stroke-width:0.26458332">ruta3</tspan></text>
    <path
       style="fill:#ffff00;fill-opacity:0.70720712;stroke:#1853ce;stroke-width:0.7122274;stroke-miterlimit:4;stroke-dasharray:none;stroke-opacity:1"
       d="m 18.570196,186.20124 c -7.614313,-4.04625 -7.640189,-14.69092 -0.04513,-18.56563 7.91373,-4.03729 17.60623,0.4068 18.376763,8.42588 0.422497,4.39702 -1.323388,7.58982 -5.404511,9.88354 -3.567069,2.00481 -9.418348,2.12078 -12.927121,0.25621 z"
       id="path970"
       inkscape:connector-curvature="0"
       transform="matrix(0.26458333,0,0,0.26458333,0,177)" />
    <path
       style="fill:#ff0000;fill-opacity:0.70720712;stroke:#1853ce;stroke-width:0.7122274;stroke-miterlimit:4;stroke-dasharray:none;stroke-opacity:1"
       d="m 17.911813,83.564936 c -3.879659,-2.022493 -5.715924,-4.439978 -6.218474,-8.186764 -1.085087,-8.08993 8.188103,-14.444915 16.465331,-11.283813 3.802796,1.452301 7.252371,5.171939 7.875162,8.491697 0.665081,3.54519 -1.641419,8.318309 -5.032331,10.414008 -3.925926,2.426356 -9.091293,2.649262 -13.089688,0.564872 z"
       id="path972"
       inkscape:connector-curvature="0"
       transform="matrix(0.26458333,0,0,0.26458333,0,177)" />
    <path
       style="fill:#008000;fill-opacity:0.70720712;stroke:#1853ce;stroke-width:0.7122274;stroke-miterlimit:4;stroke-dasharray:none;stroke-opacity:1"
       d="m 16.436873,131.44596 c -7.6143132,-4.04625 -7.6401889,-14.69092 -0.04513,-18.56563 7.91373,-4.03729 17.60623,0.4068 18.376762,8.42588 0.422498,4.39702 -1.323388,7.58982 -5.40451,9.88354 -3.56707,2.0048 -9.418348,2.12077 -12.927122,0.25621 z"
       id="path974"
       inkscape:connector-curvature="0"
       transform="matrix(0.26458333,0,0,0.26458333,0,177)" />
  </g>
</svg>
