<?xml version="1.0" encoding="UTF-8" standalone="no"?>
<!-- Created with Inkscape (http://www.inkscape.org/) -->

<svg
   xmlns:dc="http://purl.org/dc/elements/1.1/"
   xmlns:cc="http://creativecommons.org/ns#"
   xmlns:rdf="http://www.w3.org/1999/02/22-rdf-syntax-ns#"
   xmlns:svg="http://www.w3.org/2000/svg"
   xmlns="http://www.w3.org/2000/svg"
   xmlns:sodipodi="http://sodipodi.sourceforge.net/DTD/sodipodi-0.dtd"
   xmlns:inkscape="http://www.inkscape.org/namespaces/inkscape"
   width="240mm"
   height="120mm"
   viewBox="0 0 240 120"
   version="1.1"
   id="svg8"
   inkscape:version="0.92.3 (2405546, 2018-03-11)"
   sodipodi:docname="prufer.svg">
  <defs
     id="defs2" />
  <sodipodi:namedview
     id="base"
     pagecolor="#ffffff"
     bordercolor="#666666"
     borderopacity="1.0"
     inkscape:pageopacity="0.0"
     inkscape:pageshadow="2"
     inkscape:zoom="1.9887478"
     inkscape:cx="381.42824"
     inkscape:cy="165.69987"
     inkscape:document-units="mm"
     inkscape:current-layer="layer1"
     showgrid="false"
     showborder="true"
     width="200mm"
     showguides="true"
     inkscape:guide-bbox="true"
     inkscape:window-width="1920"
     inkscape:window-height="1031"
     inkscape:window-x="0"
     inkscape:window-y="0"
     inkscape:window-maximized="1">
    <inkscape:grid
       type="xygrid"
       id="grid815"
       units="mm"
       spacingx="10"
       spacingy="10"
       empspacing="4"
       dotted="false" />
  </sodipodi:namedview>
  <metadata
     id="metadata5">
    <rdf:RDF>
      <cc:Work
         rdf:about="">
        <dc:format>image/svg+xml</dc:format>
        <dc:type
           rdf:resource="http://purl.org/dc/dcmitype/StillImage" />
        <dc:title></dc:title>
      </cc:Work>
    </rdf:RDF>
  </metadata>
  <g
     inkscape:label="Layer 1"
     inkscape:groupmode="layer"
     id="layer1"
     transform="translate(0,-177)">
    <ellipse
       style="fill:#ff5555;fill-opacity:0.70720712;stroke:#1853ce;stroke-width:0.26499999;stroke-miterlimit:4;stroke-dasharray:none;stroke-opacity:1"
       id="path818"
       cx="114.01543"
       cy="240.59097"
       rx="52.284786"
       ry="42.572853" />
    <ellipse
       style="fill:#280b0b;fill-opacity:0.70720712;stroke:#1853ce;stroke-width:0.26499999;stroke-miterlimit:4;stroke-dasharray:none;stroke-opacity:1"
       id="path820"
       cx="92.196831"
       cy="223.96095"
       rx="7.3172092"
       ry="5.7207274" />
    <ellipse
       style="fill:#280b0b;fill-opacity:0.70720712;stroke:#1853ce;stroke-width:0.26499999;stroke-miterlimit:4;stroke-dasharray:none;stroke-opacity:1"
       id="path820-9"
       cx="128.25072"
       cy="225.15831"
       rx="7.3172092"
       ry="5.7207274" />
    <ellipse
       style="fill:#280b0b;fill-opacity:0.70720712;stroke:#1853ce;stroke-width:0.26499999;stroke-miterlimit:4;stroke-dasharray:none;stroke-opacity:1"
       id="path837"
       cx="111.6207"
       cy="247.77513"
       rx="3.5920846"
       ry="6.1198473" />
    <path
       style="fill:none;stroke:#000000;stroke-width:0.26458332px;stroke-linecap:butt;stroke-linejoin:miter;stroke-opacity:1"
       d="m 95.256759,270.65805 c 1.064321,-0.26608 15.584321,-6.03096 29.534911,-2.92689 38.90857,8.65734 -42.645208,1.73469 -28.204509,2.66081"
       id="path839"
       inkscape:connector-curvature="0"
       sodipodi:nodetypes="csc" />
    <path
       style="fill:#280b0b;fill-opacity:0.70720712;stroke:#1853ce;stroke-width:0.5036208;stroke-miterlimit:4;stroke-dasharray:none;stroke-opacity:1"
       d="m 470.88152,358.73692 c -25.62726,-0.65863 -76.81236,-3.53924 -100.31439,-5.64552 l -4.27404,-0.38305 5.2797,-1.67706 c 7.63857,-2.42634 21.25169,-5.76001 29.66691,-7.26502 15.54917,-2.78087 18.77302,-3.04989 36.70652,-3.0631 15.13336,-0.0111 17.56523,0.10358 23.93601,1.12924 7.9087,1.27325 26.43562,5.60466 35.99592,8.41549 6.39237,1.87942 12.55967,4.56752 12.86148,5.60585 0.2267,0.77991 -2.34662,1.57611 -6.92282,2.14195 -4.29629,0.53124 -23.92082,0.9729 -32.93529,0.74122 z"
       id="path841"
       inkscape:connector-curvature="0"
       transform="matrix(0.26458333,0,0,0.26458333,0,177)" />
    <path
       style="fill:none;stroke:#000000;stroke-width:0.26458332px;stroke-linecap:butt;stroke-linejoin:miter;stroke-opacity:1"
       d="m 133.30624,274.51621 c 0,0 -2.12864,2.92688 0.39913,3.85817 2.90863,6.26345 3.45904,-3.85817 -0.39913,-3.85817 z"
       id="path843"
       inkscape:connector-curvature="0"
       sodipodi:nodetypes="ccc" />
    <path
       style="fill:#0000ff;fill-opacity:0.70720712;stroke:#1853ce;stroke-width:0.5036208;stroke-miterlimit:4;stroke-dasharray:none;stroke-opacity:1"
       d="m 507.17718,385.18007 c -0.75201,-1.33779 -2.15078,-2.91657 -3.10838,-3.5084 -2.47538,-1.52987 -3.14625,-3.99015 -2.07076,-7.59411 0.4455,-1.49283 1.20972,-3.2261 1.69827,-3.85171 l 0.88829,-1.13747 2.25596,1.13747 c 3.76038,1.89602 6.94097,8.7778 6.44592,13.94696 -0.14965,1.56268 -0.40896,1.83664 -2.45467,2.59343 l -2.28734,0.84619 z"
       id="path845"
       inkscape:connector-curvature="0"
       transform="matrix(0.26458333,0,0,0.26458333,0,177)" />
    <path
       style="fill:#0000ff;fill-opacity:0.70720712;stroke:#1853ce;stroke-width:0.5036208;stroke-miterlimit:4;stroke-dasharray:none;stroke-opacity:1"
       d="m 510.3744,389.49025 c -0.53219,-0.64126 -0.41304,-0.84627 0.74852,-1.28789 1.61966,-0.61579 2.1707,-0.27902 1.43969,0.87988 -0.73268,1.16155 -1.45158,1.29559 -2.18821,0.40801 z"
       id="path847"
       inkscape:connector-curvature="0"
       transform="matrix(0.26458333,0,0,0.26458333,0,177)" />
  </g>
</svg>
