<?xml version="1.0" encoding="UTF-8" standalone="no"?>
<!-- Created with Inkscape (http://www.inkscape.org/) -->

<svg
   xmlns:dc="http://purl.org/dc/elements/1.1/"
   xmlns:cc="http://creativecommons.org/ns#"
   xmlns:rdf="http://www.w3.org/1999/02/22-rdf-syntax-ns#"
   xmlns:svg="http://www.w3.org/2000/svg"
   xmlns="http://www.w3.org/2000/svg"
   xmlns:sodipodi="http://sodipodi.sourceforge.net/DTD/sodipodi-0.dtd"
   xmlns:inkscape="http://www.inkscape.org/namespaces/inkscape"
   width="240mm"
   height="120mm"
   viewBox="0 0 240 120"
   version="1.1"
   id="svg8"
   inkscape:version="0.92.3 (2405546, 2018-03-11)"
   sodipodi:docname="emparejamientomax.svg">
  <defs
     id="defs2" />
  <sodipodi:namedview
     id="base"
     pagecolor="#ffffff"
     bordercolor="#666666"
     borderopacity="1.0"
     inkscape:pageopacity="0.0"
     inkscape:pageshadow="2"
     inkscape:zoom="0.99437388"
     inkscape:cx="320.47996"
     inkscape:cy="240.04305"
     inkscape:document-units="mm"
     inkscape:current-layer="layer1"
     showgrid="false"
     showborder="true"
     width="200mm"
     showguides="true"
     inkscape:guide-bbox="true"
     inkscape:window-width="1920"
     inkscape:window-height="1031"
     inkscape:window-x="0"
     inkscape:window-y="0"
     inkscape:window-maximized="1">
    <inkscape:grid
       type="xygrid"
       id="grid815"
       units="mm"
       spacingx="10"
       spacingy="10"
       empspacing="4"
       dotted="false" />
  </sodipodi:namedview>
  <metadata
     id="metadata5">
    <rdf:RDF>
      <cc:Work
         rdf:about="">
        <dc:format>image/svg+xml</dc:format>
        <dc:type
           rdf:resource="http://purl.org/dc/dcmitype/StillImage" />
        <dc:title></dc:title>
      </cc:Work>
    </rdf:RDF>
  </metadata>
  <g
     inkscape:label="Layer 1"
     inkscape:groupmode="layer"
     id="layer1"
     transform="translate(0,-177)">
    <circle
       style="fill:#ff0000;fill-opacity:1;stroke:#1853ce;stroke-width:0.26499999;stroke-miterlimit:4;stroke-dasharray:none;stroke-opacity:1"
       id="path816"
       cx="38.448608"
       cy="204.53708"
       r="5.7207274" />
    <circle
       style="fill:#ff0000;fill-opacity:1;stroke:#1853ce;stroke-width:0.26499999;stroke-miterlimit:4;stroke-dasharray:none;stroke-opacity:1"
       id="path816-8"
       cx="70.777367"
       cy="205.20229"
       r="5.7207274" />
    <circle
       style="fill:#ff0000;fill-opacity:1;stroke:#1853ce;stroke-width:0.26499999;stroke-miterlimit:4;stroke-dasharray:none;stroke-opacity:1"
       id="path816-7"
       cx="106.16605"
       cy="204.67012"
       r="5.7207274" />
    <circle
       style="fill:#ff0000;fill-opacity:1;stroke:#1853ce;stroke-width:0.26499999;stroke-miterlimit:4;stroke-dasharray:none;stroke-opacity:1"
       id="path816-9"
       cx="136.76529"
       cy="206.53268"
       r="5.7207274" />
    <circle
       style="fill:#ff0000;fill-opacity:1;stroke:#1853ce;stroke-width:0.26499999;stroke-miterlimit:4;stroke-dasharray:none;stroke-opacity:1"
       id="path816-3"
       cx="32.727882"
       cy="261.87741"
       r="5.7207274" />
    <circle
       style="fill:#ff0000;fill-opacity:1;stroke:#1853ce;stroke-width:0.26499999;stroke-miterlimit:4;stroke-dasharray:none;stroke-opacity:1"
       id="path816-33"
       cx="64.391441"
       cy="260.28091"
       r="5.7207274" />
    <circle
       style="fill:#ff0000;fill-opacity:1;stroke:#1853ce;stroke-width:0.26499999;stroke-miterlimit:4;stroke-dasharray:none;stroke-opacity:1"
       id="path816-73"
       cx="93.660278"
       cy="260.81308"
       r="5.7207274" />
    <circle
       style="fill:#ff0000;fill-opacity:1;stroke:#1853ce;stroke-width:0.26499999;stroke-miterlimit:4;stroke-dasharray:none;stroke-opacity:1"
       id="path816-2"
       cx="129.8472"
       cy="262.67563"
       r="5.7207274" />
    <circle
       style="fill:#ff0000;fill-opacity:1;stroke:#1853ce;stroke-width:0.26499999;stroke-miterlimit:4;stroke-dasharray:none;stroke-opacity:1"
       id="path816-6"
       cx="166.83237"
       cy="265.60251"
       r="5.7207274" />
    <text
       xml:space="preserve"
       style="font-style:normal;font-weight:normal;font-size:10.58333302px;line-height:1.25;font-family:sans-serif;letter-spacing:0px;word-spacing:0px;fill:#000000;fill-opacity:1;stroke:none;stroke-width:0.26458332"
       x="32.993961"
       y="191.3661"
       id="text879"><tspan
         sodipodi:role="line"
         id="tspan877"
         x="32.993961"
         y="191.3661"
         style="stroke-width:0.26458332">1</tspan></text>
    <text
       xml:space="preserve"
       style="font-style:normal;font-weight:normal;font-size:10.58333302px;line-height:1.25;font-family:sans-serif;letter-spacing:0px;word-spacing:0px;fill:#000000;fill-opacity:1;stroke:none;stroke-width:0.26458332"
       x="68.116562"
       y="194.29298"
       id="text883"><tspan
         sodipodi:role="line"
         id="tspan881"
         x="68.116562"
         y="194.29298"
         style="stroke-width:0.26458332">2</tspan></text>
    <text
       xml:space="preserve"
       style="font-style:normal;font-weight:normal;font-size:10.58333302px;line-height:1.25;font-family:sans-serif;letter-spacing:0px;word-spacing:0px;fill:#000000;fill-opacity:1;stroke:none;stroke-width:0.26458332"
       x="104.03741"
       y="193.76083"
       id="text887"><tspan
         sodipodi:role="line"
         id="tspan885"
         x="104.03741"
         y="193.76083"
         style="stroke-width:0.26458332">3</tspan></text>
    <text
       xml:space="preserve"
       style="font-style:normal;font-weight:normal;font-size:10.58333302px;line-height:1.25;font-family:sans-serif;letter-spacing:0px;word-spacing:0px;fill:#000000;fill-opacity:1;stroke:none;stroke-width:0.26458332"
       x="139.69217"
       y="196.9538"
       id="text891"><tspan
         sodipodi:role="line"
         id="tspan889"
         x="139.69217"
         y="196.9538"
         style="stroke-width:0.26458332">4</tspan></text>
    <text
       xml:space="preserve"
       style="font-style:normal;font-weight:normal;font-size:10.58333302px;line-height:1.25;font-family:sans-serif;letter-spacing:0px;word-spacing:0px;fill:#000000;fill-opacity:1;stroke:none;stroke-width:0.26458332"
       x="29.534916"
       y="278.64047"
       id="text895"><tspan
         sodipodi:role="line"
         id="tspan893"
         x="29.534916"
         y="278.64047"
         style="stroke-width:0.26458332">a</tspan></text>
    <text
       xml:space="preserve"
       style="font-style:normal;font-weight:normal;font-size:10.58333302px;line-height:1.25;font-family:sans-serif;letter-spacing:0px;word-spacing:0px;fill:#000000;fill-opacity:1;stroke:none;stroke-width:0.26458332"
       x="60.932396"
       y="276.51181"
       id="text899"><tspan
         sodipodi:role="line"
         id="tspan897"
         x="60.932396"
         y="276.51181"
         style="stroke-width:0.26458332">b</tspan></text>
    <text
       xml:space="preserve"
       style="font-style:normal;font-weight:normal;font-size:10.58333302px;line-height:1.25;font-family:sans-serif;letter-spacing:0px;word-spacing:0px;fill:#000000;fill-opacity:1;stroke:none;stroke-width:0.26458332"
       x="92.862038"
       y="279.17261"
       id="text903"><tspan
         sodipodi:role="line"
         id="tspan901"
         x="92.862038"
         y="279.17261"
         style="stroke-width:0.26458332">c</tspan></text>
    <text
       xml:space="preserve"
       style="font-style:normal;font-weight:normal;font-size:10.58333302px;line-height:1.25;font-family:sans-serif;letter-spacing:0px;word-spacing:0px;fill:#000000;fill-opacity:1;stroke:none;stroke-width:0.26458332"
       x="127.18639"
       y="278.10831"
       id="text907"><tspan
         sodipodi:role="line"
         id="tspan905"
         x="127.18639"
         y="278.10831"
         style="stroke-width:0.26458332">d</tspan></text>
    <text
       xml:space="preserve"
       style="font-style:normal;font-weight:normal;font-size:10.58333302px;line-height:1.25;font-family:sans-serif;letter-spacing:0px;word-spacing:0px;fill:#000000;fill-opacity:1;stroke:none;stroke-width:0.26458332"
       x="166.83237"
       y="281.56735"
       id="text911"><tspan
         sodipodi:role="line"
         id="tspan909"
         x="166.83237"
         y="281.56735"
         style="stroke-width:0.26458332">e</tspan></text>
    <text
       xml:space="preserve"
       style="font-style:normal;font-weight:normal;font-size:10.58333302px;line-height:1.25;font-family:sans-serif;letter-spacing:0px;word-spacing:0px;fill:#000000;fill-opacity:1;stroke:none;stroke-width:0.26458332"
       x="38.315567"
       y="204.9362"
       id="text915"><tspan
         sodipodi:role="line"
         id="tspan913"
         x="38.315567"
         y="214.29997"
         style="stroke-width:0.26458332"></tspan></text>
    <path
       style="fill:none;stroke:#000000;stroke-width:0.26458332px;stroke-linecap:butt;stroke-linejoin:miter;stroke-opacity:1"
       d="m 38.315569,205.73445 26.341951,53.74822 6.652008,-54.81255"
       id="path917"
       inkscape:connector-curvature="0" />
    <path
       style="fill:none;stroke:#000000;stroke-width:0.26458332px;stroke-linecap:butt;stroke-linejoin:miter;stroke-opacity:1"
       d="m 32.195719,263.73996 73.970331,-60.40024 61.73064,62.52888"
       id="path919"
       inkscape:connector-curvature="0" />
    <path
       style="fill:none;stroke:#000000;stroke-width:0.26458332px;stroke-linecap:butt;stroke-linejoin:miter;stroke-opacity:1"
       d="m 167.89669,265.8686 -31.92964,-59.33591 -7.18417,56.67511"
       id="path921"
       inkscape:connector-curvature="0" />
    <path
       style="fill:#0000ff;stroke:#000000;stroke-width:0.26458332px;stroke-linecap:butt;stroke-linejoin:miter;stroke-opacity:1"
       d="M 92.063794,261.07915 106.16605,203.33972"
       id="path925"
       inkscape:connector-curvature="0" />
    <path
       style="fill:#0000ff;fill-opacity:1;stroke:#1853ce;stroke-width:1.00724161;stroke-miterlimit:4;stroke-dasharray:none;stroke-opacity:1"
       d="m 485.04417,343.6507 c -13.02257,-3.46789 -19.04228,-20.21924 -11.25009,-31.30617 3.03549,-4.31899 9.45751,-8.69158 12.80818,-8.72078 1.69859,-0.0148 1.83399,0.53906 1.28662,5.26316 -1.79286,15.47356 -1.89926,17.31294 -0.94526,16.34194 0.54343,-0.55311 1.5573,-5.64425 2.25305,-11.31365 l 1.26499,-10.30799 3.15507,0.0165 c 4.48929,0.0235 10.62688,3.82909 14.06489,8.72078 8.00763,11.39346 1.72086,27.95042 -11.91683,31.38443 -5.03635,1.26816 -5.68225,1.26345 -10.72062,-0.0783 z"
       id="path929"
       inkscape:connector-curvature="0"
       transform="matrix(0.26458333,0,0,0.26458333,0,177)" />
    <path
       style="fill:#0000ff;fill-opacity:1;stroke:#1853ce;stroke-width:1.00724161;stroke-miterlimit:4;stroke-dasharray:none;stroke-opacity:1"
       d="m 503.5687,127.10359 c -14.53589,-12.44219 -5.86621,-35.657125 13.31625,-35.657125 19.18247,0 27.85215,23.214935 13.31626,35.657125 -2.2685,1.94174 -4.38249,3.5235 -4.69777,3.515 -0.31527,-0.008 -3.00661,-4.6012 -5.98074,-10.20601 -3.67244,-6.92077 -5.65041,-9.73926 -6.1645,-8.78405 -0.41633,0.77357 -1.06531,4.57432 -1.44217,8.4461 -1.18529,12.17743 -1.76359,12.66439 -8.34733,7.02896 z"
       id="path931"
       inkscape:connector-curvature="0"
       transform="matrix(0.26458333,0,0,0.26458333,0,177)" />
    <path
       style="fill:#00ffff;fill-opacity:1;stroke:#1853ce;stroke-width:1.00724161;stroke-miterlimit:4;stroke-dasharray:none;stroke-opacity:1"
       d=""
       id="path943"
       inkscape:connector-curvature="0"
       transform="matrix(0.26458333,0,0,0.26458333,0,177)" />
    <path
       style="fill:#00ffff;fill-opacity:1;stroke:#1853ce;stroke-width:1.00724161;stroke-miterlimit:4;stroke-dasharray:none;stroke-opacity:1"
       d="m 624.72011,354.56706 c -12.06401,-3.75254 -18.13973,-17.30313 -12.75016,-28.43649 3.79907,-7.84783 4.05986,-7.80759 14.08768,2.17377 4.94567,4.92276 8.99213,8.40537 8.99213,7.73913 0,-0.66624 -2.26273,-5.44618 -5.02829,-10.6221 -2.76556,-5.17591 -5.02829,-9.71251 -5.02829,-10.08134 0,-0.36882 2.60214,-0.66314 5.78254,-0.65404 7.18042,0.0205 12.54878,2.8252 16.69235,8.72078 8.00763,11.39346 1.72087,27.95041 -11.91683,31.38442 -5.24214,1.31999 -5.91149,1.30614 -10.83113,-0.22413 z"
       id="path945"
       inkscape:connector-curvature="0"
       transform="matrix(0.26458333,0,0,0.26458333,0,177)" />
    <path
       style="fill:#00ffff;fill-opacity:1;stroke:#1853ce;stroke-width:1.00724161;stroke-miterlimit:4;stroke-dasharray:none;stroke-opacity:1"
       d="m 624.18002,324.41811 c -2.87143,-2.90755 -5.22078,-5.59571 -5.22078,-5.97369 0,-0.37798 0.87493,-1.15549 1.9443,-1.7278 1.72292,-0.92207 2.35071,-0.2752 5.51347,5.681 1.96304,3.69686 3.43745,6.85327 3.27647,7.01425 -0.16097,0.16097 -2.64203,-2.08622 -5.51346,-4.99376 z"
       id="path947"
       inkscape:connector-curvature="0"
       transform="matrix(0.26458333,0,0,0.26458333,0,177)" />
    <path
       style="fill:#00ffff;fill-opacity:1;stroke:#1853ce;stroke-width:1.00724161;stroke-miterlimit:4;stroke-dasharray:none;stroke-opacity:1"
       d="m 397.58485,124.93598 c -1.46521,-0.39039 -1.34194,-1.60713 1.16785,-11.5268 1.54329,-6.09969 2.98339,-11.26775 3.20022,-11.48459 0.21684,-0.21683 3.9157,3.14798 8.2197,7.47737 l 7.82545,7.87162 -3.72639,3.0716 c -4.79243,3.95033 -11.827,5.88564 -16.68683,4.5908 z"
       id="path949"
       inkscape:connector-curvature="0"
       transform="matrix(0.26458333,0,0,0.26458333,0,177)" />
    <path
       style="fill:#00ffff;fill-opacity:1;stroke:#1853ce;stroke-width:1.00724161;stroke-miterlimit:4;stroke-dasharray:none;stroke-opacity:1"
       d="m 387.79405,119.95785 c -2.33669,-2.00012 -4.1152,-4.00164 -3.95224,-4.44783 0.34869,-0.9547 15.14656,-13.10139 15.5137,-12.73426 0.78048,0.78048 -5.10065,20.81867 -6.1102,20.81867 -0.6615,0 -3.11457,-1.63646 -5.45126,-3.63658 z"
       id="path951"
       inkscape:connector-curvature="0"
       transform="matrix(0.26458333,0,0,0.26458333,0,177)" />
    <path
       style="fill:#00ffff;fill-opacity:1;stroke:#1853ce;stroke-width:1.00724161;stroke-miterlimit:4;stroke-dasharray:none;stroke-opacity:1"
       d="m 409.77739,107.01508 -8.55308,-8.557705 -9.29745,7.605425 -9.29746,7.60542 -1.09379,-2.83074 c -1.86547,-4.82784 -0.61492,-12.931707 2.72998,-17.690919 4.23308,-6.022929 9.50787,-8.739701 16.9687,-8.739701 7.41461,0 12.73272,2.712645 16.87627,8.608196 4.23967,6.032316 4.94748,16.117634 1.4642,20.862724 -1.10635,1.5071 -2.19247,0.74632 -9.79737,-6.8627 z"
       id="path953"
       inkscape:connector-curvature="0"
       transform="matrix(0.26458333,0,0,0.26458333,0,177)" />
    <path
       style="fill:#00ff00;fill-opacity:1;stroke:#1853ce;stroke-width:1.00724161;stroke-miterlimit:4;stroke-dasharray:none;stroke-opacity:1"
       d="m 261.7881,126.32955 c -2.0253,-0.48487 -5.49693,-2.43478 -7.71474,-4.33314 -14.44696,-12.36607 -5.69896,-35.578234 13.40842,-35.578234 19.07905,0 27.85661,23.211114 13.44311,35.548544 -3.52672,3.01873 -11.64641,6.27377 -12.79208,5.12811 -0.23074,-0.23074 0.0941,-4.42434 0.72179,-9.31909 1.37663,-10.73433 1.43007,-13.58596 0.24084,-12.85098 -0.49527,0.3061 -1.21352,4.09277 -1.59611,8.41483 -0.38259,4.32206 -0.9956,9.21127 -1.36224,10.86491 -0.64066,2.88953 -0.81003,2.97229 -4.34899,2.12505 z"
       id="path955"
       inkscape:connector-curvature="0"
       transform="matrix(0.26458333,0,0,0.26458333,0,177)" />
    <path
       style="fill:#00ff00;fill-opacity:1;stroke:#1853ce;stroke-width:1.00724161;stroke-miterlimit:4;stroke-dasharray:none;stroke-opacity:1"
       d="m 237.65231,334.59978 c -5.27094,-1.40365 -11.43792,-7.07412 -13.4644,-12.3804 -3.39588,-8.89198 0.14144,-19.96753 7.88037,-24.67385 l 3.22384,-1.96054 4.62807,9.21505 c 5.18601,10.32595 5.23822,10.30226 6.50738,-2.95274 0.41328,-4.31627 1.15798,-7.28427 1.82524,-7.27447 2.67286,0.0392 9.32008,4.85515 12.03695,8.72078 8.00763,11.39346 1.72087,27.95041 -11.91683,31.38443 -5.03635,1.26816 -5.68225,1.26345 -10.72062,-0.0783 z"
       id="path957"
       inkscape:connector-curvature="0"
       transform="matrix(0.26458333,0,0,0.26458333,0,177)" />
  </g>
</svg>
